<svg width="24" height="24" viewBox="0 0 24 24" fill="none" xmlns="http://www.w3.org/2000/svg">
<g clip-path="url(#clip0_35_1965)">
<path d="M18.27 4.78988C18.27 5.29645 18.4713 5.78226 18.8294 6.14046C19.1876 6.49865 19.6735 6.69988 20.18 6.69988C20.6866 6.69988 21.1724 6.49865 21.5306 6.14046C21.8888 5.78226 22.09 5.29645 22.09 4.78988C22.09 4.28332 21.8888 3.7975 21.5306 3.43931C21.1724 3.08111 20.6866 2.87988 20.18 2.87988C19.6735 2.87988 19.1876 3.08111 18.8294 3.43931C18.4713 3.7975 18.27 4.28332 18.27 4.78988Z" fill="#E8181A"/>
<path d="M12.05 19.6398C13.5711 19.6417 15.0585 19.192 16.3236 18.3475C17.5888 17.503 18.5746 16.3019 19.1563 14.8964C19.7379 13.4909 19.8891 11.9444 19.5906 10.4529C19.2921 8.96134 18.5575 7.59204 17.4798 6.51858C16.4021 5.44512 15.03 4.71585 13.5373 4.42323C12.0446 4.13062 10.4987 4.28785 9.09547 4.87497C7.69226 5.4621 6.49501 6.45268 5.6555 7.72112C4.816 8.98956 4.37207 10.4787 4.37999 11.9998C4.39316 14.0272 5.20643 15.9673 6.64284 17.3981C8.07925 18.8289 10.0226 19.6346 12.05 19.6398ZM8.70999 7.46978C9.21188 7.01224 9.86113 6.7497 10.54 6.72978C10.7273 6.72162 10.9142 6.75504 11.0871 6.82766C11.26 6.90028 11.4147 7.01029 11.54 7.14978C11.5862 7.19266 11.6469 7.21648 11.71 7.21648C11.773 7.21648 11.8338 7.19266 11.88 7.14978C12.0481 7.02689 12.2023 6.88606 12.34 6.72978C12.3679 6.68844 12.3829 6.63968 12.3829 6.58978C12.3829 6.53988 12.3679 6.49112 12.34 6.44978L12 5.65978C11.978 5.62178 11.9665 5.57867 11.9665 5.53478C11.9665 5.4909 11.978 5.44779 12 5.40978C12.0217 5.37411 12.0527 5.34502 12.0897 5.32564C12.1267 5.30626 12.1683 5.29732 12.21 5.29978C13.1128 5.31255 14.0035 5.50987 14.8272 5.87961C15.651 6.24935 16.3904 6.78369 17 7.44978C17.0291 7.47961 17.0499 7.5165 17.0605 7.55683C17.071 7.59716 17.0708 7.63954 17.06 7.67978C17.0498 7.72046 17.0299 7.75808 17.0021 7.78942C16.9742 7.82077 16.9392 7.84491 16.9 7.85978L16.28 8.06978C16.2437 8.08385 16.2107 8.10535 16.1831 8.1329C16.1556 8.16045 16.1341 8.19345 16.12 8.22978C16.1024 8.2638 16.0933 8.30151 16.0933 8.33978C16.0933 8.37805 16.1024 8.41577 16.12 8.44978C16.3027 8.69267 16.4198 8.97851 16.46 9.27978C16.4524 9.75499 16.3431 10.2231 16.1396 10.6526C15.9361 11.082 15.643 11.463 15.28 11.7698C15.2544 11.812 15.2409 11.8604 15.2409 11.9098C15.2409 11.9591 15.2544 12.0076 15.28 12.0498C15.55 12.6598 15.98 13.6598 15.41 14.2298C14.9804 14.6586 14.6583 15.1828 14.47 15.7598C14.12 16.6598 13.77 17.2498 12.19 17.2498C11.77 17.2498 10.25 16.5298 10.25 15.7898C10.2809 15.2678 10.3715 14.7511 10.52 14.2498C10.74 13.3698 10.98 12.3698 10.62 11.8998C10.4433 11.7463 10.2361 11.6322 10.0119 11.5649C9.78781 11.4977 9.55194 11.4789 9.31999 11.5098C8.23999 11.5098 7.83999 10.4498 7.77999 9.88978C7.75247 9.44332 7.82127 8.99615 7.98173 8.57861C8.14219 8.16107 8.39055 7.78291 8.70999 7.46978Z" fill="#E8181A"/>
<path d="M21.82 9.83991L21.91 10.2899C21.9551 10.5551 22.1036 10.7916 22.3231 10.9472C22.5425 11.1029 22.8147 11.165 23.08 11.1199C23.3452 11.0748 23.5816 10.9262 23.7373 10.7068C23.8929 10.4874 23.9551 10.2151 23.91 9.94991C23.91 9.76991 23.84 9.58991 23.81 9.40991C23.7529 9.14469 23.5929 8.91299 23.365 8.76577C23.1372 8.61856 22.8602 8.56788 22.595 8.62491C22.3297 8.68193 22.098 8.84197 21.9508 9.06983C21.8036 9.29768 21.7529 9.57469 21.81 9.83991H21.82Z" fill="#E8181A"/>
<path d="M23.05 12.9999C22.9207 12.9768 22.788 12.9795 22.6597 13.0078C22.5314 13.036 22.4099 13.0893 22.3022 13.1645C22.1944 13.2397 22.1026 13.3354 22.0319 13.4462C21.9612 13.5569 21.913 13.6805 21.89 13.8099C21.841 14.0962 21.7776 14.3799 21.7 14.6599C21.6298 14.9158 21.664 15.1892 21.7953 15.4198C21.9266 15.6505 22.1441 15.8196 22.4 15.8899C22.656 15.9602 22.9293 15.9259 23.16 15.7946C23.3907 15.6633 23.5597 15.4458 23.63 15.1899C23.72 14.8499 23.8 14.5099 23.86 14.1899C23.8875 14.0583 23.8882 13.9226 23.862 13.7908C23.8359 13.6591 23.7834 13.5339 23.7078 13.4228C23.6322 13.3117 23.535 13.217 23.422 13.1444C23.309 13.0717 23.1825 13.0226 23.05 12.9999Z" fill="#E8181A"/>
<path d="M2.09002 7.21989C2.31811 7.35511 2.59058 7.3942 2.84749 7.32857C3.1044 7.26293 3.32473 7.09795 3.46002 6.86989C3.61002 6.61989 3.77002 6.36989 3.94002 6.13989C4.05037 5.92526 4.07939 5.67797 4.02171 5.44362C3.96403 5.20928 3.82355 5.0037 3.62618 4.86481C3.42882 4.72592 3.18788 4.6631 2.94782 4.68792C2.70777 4.71275 2.48478 4.82355 2.32002 4.99989C2.11002 5.28989 1.92002 5.57989 1.74002 5.87989C1.61413 6.10524 1.58027 6.37054 1.6455 6.62029C1.71073 6.87004 1.87001 7.08489 2.09002 7.21989Z" fill="#E8181A"/>
<path d="M2.61018 15.3C2.52018 15.02 2.43018 14.74 2.36018 14.46C2.28857 14.2028 2.1177 13.9845 1.88515 13.8532C1.65261 13.7219 1.37744 13.6884 1.12018 13.76C0.862919 13.8316 0.644642 14.0025 0.513367 14.235C0.382092 14.4676 0.348571 14.7428 0.420179 15C0.510179 15.34 0.610179 15.67 0.730179 16C0.764597 16.1343 0.826558 16.26 0.912127 16.369C0.997696 16.4781 1.10501 16.5682 1.22724 16.6335C1.34948 16.6989 1.48397 16.7382 1.62219 16.7488C1.7604 16.7594 1.89931 16.7412 2.03011 16.6953C2.16091 16.6494 2.28073 16.5768 2.38197 16.4821C2.48321 16.3874 2.56365 16.2727 2.6182 16.1452C2.67274 16.0178 2.7002 15.8804 2.69882 15.7418C2.69744 15.6032 2.66725 15.4664 2.61018 15.34V15.3Z" fill="#E8181A"/>
<path d="M6.44013 3.70997C6.68013 3.54997 6.92013 3.38997 7.18013 3.24997C7.29504 3.18431 7.39588 3.09666 7.47692 2.99202C7.55795 2.88739 7.61758 2.76782 7.6524 2.64013C7.68722 2.51245 7.69655 2.37917 7.67986 2.24788C7.66317 2.11659 7.62079 1.98988 7.55513 1.87497C7.48947 1.76006 7.40182 1.65921 7.29718 1.57818C7.19255 1.49715 7.07297 1.43752 6.94529 1.4027C6.81761 1.36788 6.68432 1.35854 6.55304 1.37523C6.42175 1.39192 6.29504 1.43431 6.18013 1.49997C5.87013 1.67997 5.57013 1.85997 5.28013 2.05997C5.06416 2.20969 4.9158 2.43841 4.86715 2.69665C4.81849 2.9549 4.87345 3.22192 5.02013 3.43997C5.09361 3.55332 5.18929 3.6506 5.3014 3.72595C5.41352 3.8013 5.53973 3.85316 5.67244 3.87839C5.80514 3.90363 5.94158 3.90171 6.07352 3.87276C6.20547 3.84382 6.33018 3.78844 6.44013 3.70997Z" fill="#E8181A"/>
<path d="M10.4701 2.10995C10.7581 2.06076 11.0485 2.02738 11.3401 2.00995C11.6038 1.9895 11.8486 1.86543 12.0211 1.6649C12.1935 1.46437 12.2794 1.20371 12.2601 0.939952C12.2525 0.808549 12.219 0.679949 12.1615 0.561527C12.1041 0.443105 12.0238 0.337191 11.9253 0.249859C11.8268 0.162528 11.7121 0.0954975 11.5876 0.0526125C11.4632 0.00972751 11.3315 -0.00816828 11.2001 -4.84871e-05C10.8501 -4.84871e-05 10.5001 0.0699515 10.2001 0.129952C10.0688 0.150963 9.94291 0.197635 9.82963 0.267301C9.71634 0.336968 9.61789 0.428266 9.53989 0.535982C9.46189 0.643698 9.40587 0.765723 9.37502 0.895089C9.34418 1.02446 9.33912 1.15863 9.36013 1.28995C9.38114 1.42127 9.42781 1.54717 9.49748 1.66046C9.56715 1.77374 9.65845 1.87219 9.76616 1.9502C9.87388 2.0282 9.9959 2.08422 10.1253 2.11506C10.2546 2.1459 10.3888 2.15096 10.5201 2.12995L10.4701 2.10995Z" fill="#E8181A"/>
<path d="M1.00007 11.8899C1.13075 11.9037 1.26287 11.8917 1.3889 11.8545C1.51492 11.8172 1.63237 11.7555 1.73453 11.6729C1.83669 11.5902 1.92156 11.4882 1.98428 11.3728C2.047 11.2573 2.08635 11.1306 2.10007 10.9999C2.10007 10.7066 2.14007 10.4166 2.22007 10.1299C2.25855 9.87614 2.198 9.61731 2.05095 9.40697C1.90389 9.19663 1.6816 9.05088 1.43007 8.99989C1.17021 8.94998 0.90116 9.0051 0.68186 9.15317C0.46256 9.30125 0.310888 9.5302 0.260069 9.78989C0.200069 10.1399 0.150069 10.4799 0.110069 10.7899C0.09621 10.9206 0.108243 11.0527 0.145479 11.1787C0.182716 11.3047 0.244426 11.4222 0.327083 11.5243C0.409739 11.6265 0.51172 11.7114 0.627196 11.7741C0.742672 11.8368 0.869378 11.8762 1.00007 11.8899Z" fill="#E8181A"/>
<path d="M12.84 21.9998H12C11.7348 21.9998 11.4804 22.1051 11.2929 22.2927C11.1054 22.4802 11 22.7346 11 22.9998C10.9994 23.139 11.028 23.2769 11.0838 23.4044C11.1395 23.532 11.2214 23.6466 11.324 23.7407C11.4266 23.8348 11.5477 23.9065 11.6796 23.9511C11.8115 23.9957 11.9513 24.0123 12.09 23.9998H13C13.1313 23.9893 13.2593 23.953 13.3766 23.893C13.4939 23.8331 13.5983 23.7506 13.6837 23.6503C13.7691 23.55 13.834 23.4339 13.8745 23.3086C13.9151 23.1832 13.9305 23.0511 13.92 22.9198C13.9095 22.7885 13.8732 22.6605 13.8133 22.5432C13.7533 22.4259 13.6708 22.3215 13.5705 22.2361C13.4703 22.1507 13.3541 22.0858 13.2288 22.0453C13.1034 22.0047 12.9713 21.9893 12.84 21.9998Z" fill="#E8181A"/>
<path d="M8.54009 21.3501C8.27009 21.2501 8.00009 21.1301 7.74009 21.0101C7.62141 20.9486 7.49161 20.9115 7.35836 20.901C7.2251 20.8906 7.0911 20.9069 6.96428 20.9491C6.83745 20.9913 6.72037 21.0585 6.61996 21.1467C6.51955 21.235 6.43785 21.3424 6.37968 21.4628C6.32151 21.5831 6.28806 21.7139 6.28131 21.8474C6.27455 21.9809 6.29463 22.1144 6.34035 22.24C6.38607 22.3656 6.4565 22.4808 6.54749 22.5787C6.63848 22.6766 6.74818 22.7553 6.87009 22.8101C7.19009 22.9601 7.51009 23.1001 7.87009 23.2201C7.99465 23.275 8.12912 23.3039 8.26526 23.3051C8.4014 23.3062 8.53633 23.2796 8.6618 23.2267C8.78727 23.1739 8.90063 23.096 8.99493 22.9978C9.08924 22.8996 9.1625 22.7832 9.21022 22.6557C9.25795 22.5282 9.27914 22.3923 9.2725 22.2563C9.26585 22.1203 9.23151 21.9871 9.17158 21.8649C9.11165 21.7427 9.02739 21.634 8.92396 21.5454C8.82053 21.4569 8.70012 21.3904 8.57009 21.3501H8.54009Z" fill="#E8181A"/>
<path d="M17.0002 20.6798C16.7402 20.8298 16.4802 20.9598 16.2202 21.0798C16.0996 21.1338 15.9909 21.2112 15.9004 21.3074C15.8099 21.4037 15.7394 21.5169 15.6929 21.6406C15.6464 21.7643 15.6249 21.8959 15.6295 22.0279C15.6342 22.16 15.665 22.2898 15.7202 22.4098C15.831 22.6392 16.0251 22.8175 16.263 22.9086C16.5009 22.9997 16.7645 22.9965 17.0002 22.8998C17.3224 22.7579 17.6362 22.5976 17.9402 22.4198C18.1709 22.2872 18.3395 22.0684 18.4089 21.8115C18.4783 21.5545 18.4428 21.2806 18.3102 21.0498C18.1776 20.8191 17.9587 20.6505 17.7018 20.5811C17.4449 20.5117 17.1709 20.5472 16.9402 20.6798H17.0002Z" fill="#E8181A"/>
<path d="M21.6 17.5398C21.3848 17.3869 21.118 17.3253 20.8576 17.3684C20.5972 17.4115 20.3644 17.5558 20.21 17.7698C20.0366 18.0098 19.8566 18.2398 19.67 18.4598C19.5846 18.5596 19.5198 18.6752 19.4791 18.8001C19.4384 18.9249 19.4227 19.0566 19.433 19.1875C19.4432 19.3185 19.4791 19.4461 19.5386 19.5632C19.5982 19.6802 19.6802 19.7844 19.78 19.8698C19.8798 19.9551 19.9954 20.02 20.1203 20.0606C20.2452 20.1013 20.3768 20.117 20.5078 20.1068C20.6387 20.0966 20.7663 20.0607 20.8834 20.0011C21.0004 19.9416 21.1046 19.8596 21.19 19.7598C21.4207 19.4944 21.6376 19.2173 21.84 18.9298C21.9918 18.7134 22.0518 18.4457 22.0068 18.1852C21.9618 17.9248 21.8156 17.6927 21.6 17.5398Z" fill="#E8181A"/>
<path d="M4.3201 18.33C4.23994 18.2195 4.13799 18.1265 4.02052 18.0568C3.90305 17.9872 3.77256 17.9423 3.63709 17.925C3.50163 17.9077 3.36406 17.9184 3.23286 17.9563C3.10166 17.9942 2.97962 18.0586 2.87426 18.1455C2.7689 18.2324 2.68246 18.3399 2.62026 18.4615C2.55805 18.5831 2.52141 18.7161 2.51259 18.8524C2.50376 18.9887 2.52295 19.1253 2.56896 19.2539C2.61497 19.3825 2.68683 19.5003 2.7801 19.6C3.00001 19.8718 3.23365 20.1321 3.4801 20.38C3.56586 20.4917 3.67424 20.584 3.79816 20.6509C3.92207 20.7179 4.05871 20.7578 4.19915 20.7683C4.33958 20.7787 4.48064 20.7594 4.61308 20.7115C4.74552 20.6637 4.86637 20.5884 4.9677 20.4906C5.06903 20.3928 5.14857 20.2747 5.2011 20.1441C5.25363 20.0134 5.27797 19.8731 5.27254 19.7324C5.2671 19.5917 5.232 19.4537 5.16955 19.3275C5.10709 19.2013 5.01868 19.0897 4.9101 19C4.7001 18.77 4.5101 18.55 4.3201 18.33Z" fill="#E8181A"/>
<path d="M14.8301 2.37972L15.2601 2.50972C15.5078 2.58486 15.775 2.56101 16.0055 2.44319C16.236 2.32538 16.4118 2.12278 16.496 1.87799C16.5802 1.63321 16.5662 1.36532 16.4569 1.13066C16.3476 0.895994 16.1516 0.712844 15.9101 0.619723L15.3801 0.459723C15.1269 0.388488 14.8557 0.419918 14.6255 0.547203C14.3953 0.674488 14.2245 0.887372 14.1501 1.13972C14.1133 1.26579 14.1018 1.39787 14.116 1.52841C14.1303 1.65896 14.1702 1.78541 14.2333 1.90056C14.2964 2.0157 14.3816 2.11728 14.484 2.1995C14.5864 2.28171 14.704 2.34295 14.8301 2.37972Z" fill="#E8181A"/>
</g>
<defs>
<clipPath id="clip0_35_1965">
<rect width="24" height="24" fill="white"/>
</clipPath>
</defs>
</svg>
