<?xml version="1.0" encoding="UTF-8"?>
<svg id="Layer_2" data-name="Layer 2" xmlns="http://www.w3.org/2000/svg" viewBox="0 0 958.531 193.168">
  <g id="Layer_1-2" data-name="Layer 1">
    <g>
      <path d="M928.163,57.35l.507-54.875,29.859-.016.003,107.309-26.793.168-44.754-57.239-.539,57.376-61.111-.198-27.608-70.532-27.883,70.669-60.994.017-.153-60.202-27.026,40.862-26.65-39.986-.176,59.316-63.279.044-21.829-32.844-11.749-.068-.223,32.688-30.715-.026-.007-107.497,57.544.311c9.295.05,18.192,3.196,25.003,8.815,8.141,5.592,11.691,14.007,12.785,23.496,1.993,17.283-5.586,29.624-21.548,37.623l23.993,34.312.165-104.406,31.972-.194,24.971,40.671,25.179-40.639,31.633-.044.304,104.362L783.222,2.513l29.244-.193,23.535,55.458,20.477,48.439.306-103.709,28.004-.294,43.374,55.137ZM582.144,52.721c6.699-.133,10.586-7.647,9.908-12.932-.803-6.264-5.242-10.544-12.158-10.558l-21.919-.046.013,24.014,24.155-.478Z" fill="#fefcfc"/>
      <path d="M394.195,2.595l29.912-.334.003,107.726-25.988-.028-44.65-57.183-.36,57.251-63.608-.036-21.416-32.783-11.806-.061-.224,32.724-30.771-.332.062-107.222,57.532.306c9.286.049,18.225,3.241,24.93,8.755,9.288,7.385,13.068,17.36,12.625,28.765-.626,16.133-6.327,24.355-21.513,32.13l24.154,35.267.212-105.05,27.904-.167,42.778,54.739.223-54.467ZM280.971,52.487c7-1.549,10.068-8.114,9.098-13.463-1.093-6.028-5.163-9.769-11.898-9.787l-21.9-.057.03,24.04,24.67-.734Z" fill="#fefcfc"/>
      <path d="M340.577,153.863c-1.643-.003-1.851,1.488-1.356,2.48.392.785,1.42,1.61,2.934,1.607l33.948-.06v13.994s-33.946-.057-33.946-.057c-1.29-.002-2.051.572-2.55,1.016-.575.513-.743,2.232-.133,2.97l36.612.049-.007,16.006-87.434-.108-16.467-16.374c-1.709,2.582-4.861,3.914-6.546,5.741l-.483,10.723-45.175-.157-2.932-8.789-22.039-.169-3.755,9.105-44.575-.156-.753-21.109-12.171,21.383-14.448-.207-12.637-21.877-.269,21.951-21.989-.025.084-51.656c.004-2.35,1.775-3.374,3.831-3.335l21.841.407,16.552,30.043c2.588-5.506,5.273-10.499,8.274-15.701,2.852-4.945,4.547-10.23,8.603-14.529l24.551.164.579,52.975,22.24-53.009,30.017.003,22.04,52.777.262-48.988c.012-2.256,1.672-4.053,3.973-4.008l17.704.341.314,19.505,24.368-19.052c8.746-2.228,19-.433,28.669-.256l-30.92,26.26c7.056,4.632,10.975,11.024,17.147,14.755,4.213,4.701,8.42,8.762,13.601,12.35l.2-53.803h57.467s.304,16.883.304,16.883l-35.534-.063ZM210.788,166.521l-5.094-12.073-4.603,12.299,9.697-.225Z" fill="#fefefe"/>
      <path d="M184.935,111.959h-46.16s-32.316-32.274-32.316-32.274v-47.093S138.776.318,138.776.318h46.16s32.316,32.274,32.316,32.274v47.093s-32.316,32.274-32.316,32.274ZM173.926,83.093l14.733-16.409c2.02-6.931-.044-15.043.686-22.134l-16.47-16.054c-7.395-.483-14.638-.502-22.05.01l-16.385,15.98.007,23.312,15.656,15.369,23.822-.074Z" fill="#fefcfc"/>
      <polygon points="506.922 67.903 462.094 68.149 462.106 84.081 519.015 84.07 518.749 110.052 432.13 109.94 432.129 2.315 518.757 2.327 518.776 28.057 462.429 28.348 462.123 43.145 506.778 43.311 506.922 67.903" fill="#fefcfc"/>
      <path d="M64.479,82.677c6.699-2.212,10.8-6.421,15.505-11.984l22.629,16.707-10.399,11.588c-21.568,18.058-54.102,17.406-74.851-1.677C-7.097,74.816-5.591,31.922,21.105,11.884c20.39-15.305,48.295-15.839,69.018-1.529l12.043,12.29-23.271,17.995c-5.966-8.169-13.816-12.869-22.955-12.599-8.601.254-17.285,4.665-21.395,13.255-4.378,9.151-4.33,20.464.104,29.474,5.518,11.213,17.875,15.855,29.829,11.908Z" fill="#fefcfc"/>
      <path d="M663.228,175.975c-6.019,18.564-34.486,19.988-51.538,14.119-8.903-3.064-13.938-10.446-15.36-19.754-2.569,10.955-7.965,18.23-18.29,20.729-11.218,2.716-23.489,2.678-34.499-.655-11.797-3.571-15.852-14.274-15.916-25.489-.066-11.534,3.684-21.085,15.177-25.427,5.964-2.253,12.414-2.655,19.203-2.695,17.805-.104,30.126,4.33,34.477,22.402,2.711-17.676,15.49-22.56,33.433-22.39,7.347.07,14.012.154,20.99,3.309,12.995,5.876,16.858,21.863,12.323,35.852ZM595.763,167.538l.095-5.27-21.294.479c-1.345-6.72-6.853-7.988-12.606-8.034-5.978-.047-12.222,1.715-13.11,7.889-.89,6.191,1.664,10.811,7.704,11.805,5.263.866,11.11,1.092,15.622-2.401l2.968-5.07,20.621.602ZM640.877,171.788c4.089-3.77,2.644-9.928.923-13.853-6.549-3.825-15.67-4.974-21.954-.002-3.388,2.681-3.56,11.18.1,13.952,5.414,4.101,15.844,4.592,20.931-.098Z" fill="#fefefe"/>
      <path d="M851.705,191.7l-19.05.19c-1.061.011-1.86-.348-2.507-.976-.424-.412.195-1.484.459-2.214l-.075-32.51-18.889-.151c-2.286-.018-3.389-.516-4.843-2.268l-.087,38.064-27.786-.08-21.768-29.244-.42,29.305-20.979-.014.154-54.621,26.787-.183,21.781,29.342.275-25.435c.012-1.137.585-3.861,1.988-3.858l17.805.042c.614.001,1.588,1.371,1.945,1.689.477.424,1.734-1.764,2.423-1.765l64.711-.086.032,18.973-21.984.019.027,35.781Z" fill="#fefefe"/>
      <path d="M712.884,137.294l21.719-.098-.109,29.351c-.039,10.393-4.951,20.05-15.484,23.555-21.577,7.18-52.607,1.796-52.776-18.558l-.285-34.308,20.685-.021.295,28.638c.083,8.063,8.745,10.158,18.386,8.557,4.733-.786,7.971-4.492,7.52-9.489l.05-27.626Z" fill="#fefefe"/>
      <polygon points="474.074 191.703 453.07 191.82 453.071 155.923 430.103 155.903 430.032 137.039 496.703 137.029 496.745 155.642 474.049 155.922 474.074 191.703" fill="#fefefe"/>
      <polygon points="429.154 191.671 407.224 191.894 407.208 137.225 428.968 137.218 429.154 191.671" fill="#fefefe"/>
    </g>
  </g>
</svg>