<svg width="24" height="21" viewBox="0 0 24 21" fill="none" xmlns="http://www.w3.org/2000/svg">
<path fill-rule="evenodd" clip-rule="evenodd" d="M16.1064 0.00215401L18.0195 0.00313057C19.9948 1.99869 22.0259 3.97168 23.9883 5.97481C24.0252 8.87944 23.9645 11.8201 23.9932 14.7297C23.7023 15.0453 23.3164 15.4106 23.0088 15.718L21.0986 17.6272L18.9727 19.7551C18.5948 20.1331 18.1879 20.5563 17.7998 20.9191L9.00879 20.9397L6.05078 20.9406L0 14.8889V6.08028C0.207874 5.83692 0.637783 5.43224 0.875 5.19551L2.5459 3.52462L4.81445 1.25704C5.19524 0.875717 5.66235 0.379223 6.05469 0.0236384C6.51046 0.0372927 7.00847 0.0283924 7.4668 0.0285212L10.8145 0.0168024L13.4756 0.017779C13.9538 0.01794 14.5203 0.0321092 14.9922 0.00801338C15.3489 -0.00550983 15.7472 0.00218004 16.1064 0.00215401ZM7.95898 4.5334C7.80775 4.653 7.53184 4.94461 7.38477 5.092L6.3418 6.13692L5.15039 7.32735C4.98282 7.49457 4.68363 7.77495 4.53613 7.94844L4.53809 13.0022L6.74512 15.2111L7.52246 15.9885C7.64476 16.1107 7.82511 16.3031 7.95215 16.4133L13.3701 16.4123L15.0518 16.4133C15.3147 16.4133 15.5899 16.4157 15.8535 16.4104C15.8886 16.4096 15.9244 16.3769 15.9521 16.3518L18.2207 14.0842C18.6192 13.6858 19.0723 13.2523 19.4551 12.844C19.4527 11.1956 19.433 9.49891 19.457 7.85469C18.5139 6.8808 17.5273 5.93966 16.5781 4.9709C16.4366 4.82655 16.2829 4.66793 16.1348 4.53145L10.7852 4.53047H8.94727C8.63043 4.5305 8.27333 4.52281 7.95898 4.5334Z" fill="white"/>
</svg>
