<svg viewBox="0 0 1208.2299999999998 418.08" xmlns="http://www.w3.org/2000/svg" width="2500" height="865"><path d="M992.63 151.98v-.05h-25.91c-9.85 0-19.19-3.9-26.28-10.99a38.084 38.084 0 0 1-5.59-7.09h60.04c26.15 0 47.42-21.27 47.42-47.42s-21.27-47.42-47.42-47.42v-.04H965.9v.07c-19.8.21-38.45 8.07-52.59 22.21-14.34 14.34-22.23 33.31-22.23 53.41s7.9 39.07 22.23 53.41c13.56 13.56 31.25 21.34 50.13 22.15v.08h78.86c-5.78-22.03-25.86-38.33-49.68-38.33zm-52.18-63.59c7.09-7.09 16.42-10.99 26.27-10.99v-.05h28.17v.04c4.9 0 9.04 4.14 9.04 9.04s-4.14 9.04-9.04 9.04h-60.04c1.55-2.54 3.42-4.92 5.59-7.09z" fill="#043494"/><path d="M850.62 151.74c-7.04 0-12.99-5.95-12.99-12.99V77.11h12.99v-.05c23.82 0 43.9-16.3 49.68-38.33h-62.7V0c-21.55 5.66-37.6 25-38.29 48.13h-.06v90.61c0 28.32 23.04 51.36 51.36 51.36l49.71-.1c-5.75-22.08-25.86-38.27-49.71-38.27zM768.35 38.73v.1c-20.11 0-39.07 7.9-53.41 22.23-14.2 14.2-22.07 32.94-22.22 52.83h-.01v76.35h38.37v-75.77c0-9.85 3.9-19.19 10.99-26.28s16.42-10.99 26.27-10.99l17.78-.1V38.73h-17.78zM303.07 95.55h-56.46c-4.95 0-9.14-4.19-9.14-9.14s4.19-9.14 9.14-9.14h54.57c23.63-.11 43.53-16.33 49.26-38.22H246.61c-26.11 0-47.35 21.25-47.35 47.36s21.24 47.36 47.36 47.36h56.46v-.03.03c4.95 0 9.14 4.19 9.14 9.14s-4.19 9.14-9.14 9.14l-58.05.14c-22.09 1.6-40.33 17.27-45.77 38.07h103.82c26.11 0 47.35-21.25 47.35-47.36s-21.24-47.36-47.36-47.36zM492.62 61.37c-14.34-14.34-33.31-22.23-53.41-22.23h-75.54v208.79c22.05-5.77 38.37-25.86 38.37-49.7v-7.8h37.16c20.1 0 39.07-7.9 53.41-22.23 14.34-14.34 22.23-33.31 22.23-53.41s-7.9-39.07-22.23-53.41zm-27.14 79.68c-7.09 7.09-16.42 10.99-26.28 10.99h-37.16V77.5h37.16c9.85 0 19.19 3.9 26.28 10.99s10.99 16.42 10.99 26.28-3.9 19.19-10.99 26.28z" fill="#043494"/><path d="M134 115.48c24.17-.67 44.54-16.53 51.9-38.37H56.31v.02C25.24 77.27 0 102.59 0 133.7s25.16 56.34 56.16 56.56 76.25.01 76.25.01h53.49c-7.36-21.85-27.73-37.71-51.9-38.37H56.57c-9.87 0-18.2-8.33-18.2-18.2s8.33-18.2 18.2-18.2H134z" fill="#3ce47c"/><g fill="#043494"><path d="M122.35.36c-24.17.67-44.54 16.53-51.9 38.37H179c24.17-.67 44.54-16.53 51.9-38.37H122.35zM1160.86 95.55h-56.46c-4.95 0-9.14-4.19-9.14-9.14s4.19-9.14 9.14-9.14h54.57c23.63-.11 43.53-16.33 49.26-38.22H1104.4c-26.11 0-47.35 21.25-47.35 47.36s21.24 47.36 47.36 47.36h56.46v-.03.03c4.95 0 9.14 4.19 9.14 9.14s-4.19 9.14-9.14 9.14l-58.05.14c-22.09 1.6-40.33 17.27-45.77 38.07h103.82c26.11 0 47.35-21.25 47.35-47.36s-21.24-47.36-47.36-47.36zM603.93 192.13c-10.44 0-20.58-2.05-30.14-6.09-9.22-3.9-17.5-9.48-24.6-16.58s-12.68-15.38-16.58-24.6c-4.04-9.56-6.09-19.7-6.09-30.14s2.05-20.58 6.09-30.14c3.9-9.22 9.48-17.5 16.58-24.6s15.38-12.68 24.6-16.58c9.56-4.04 19.7-6.09 30.14-6.09s20.58 2.05 30.14 6.09c9.22 3.9 17.5 9.48 24.6 16.58s12.68 15.38 16.58 24.6c4.04 9.56 6.09 19.7 6.09 30.14s-2.05 20.58-6.09 30.14c-3.9 9.22-9.48 17.5-16.58 24.6s-15.38 12.68-24.6 16.58c-9.56 4.04-19.7 6.09-30.14 6.09zm0-114.62c-20.52 0-37.21 16.69-37.21 37.21s16.69 37.21 37.21 37.21 37.21-16.69 37.21-37.21-16.69-37.21-37.21-37.21zM555.35 302.16l-73.29-.02v0c-9.99 0-18.43-8.44-18.43-18.43s8.44-18.43 18.43-18.43h83.18c23.62 0 43.42-16.67 48.27-38.86H482.07c-31.59 0-57.29 25.7-57.29 57.29S450.48 341 482.07 341v-.07.07h72.94c9.99.01 18.43 8.45 18.43 18.44s-8.44 18.43-18.43 18.43h-81.98c-23.62 0-43.42 16.67-48.27 38.86h130.25c31.59 0 57.29-25.7 57.29-57.29s-25.51-57.09-56.93-57.28zM1088.09 378.19v-.05h-25.91c-9.85 0-19.19-3.9-26.28-10.99a38.084 38.084 0 0 1-5.59-7.09h60.04c26.15 0 47.42-21.27 47.42-47.42s-21.27-47.42-47.42-47.42v-.04h-28.99v.07c-19.8.21-38.45 8.07-52.59 22.21-14.34 14.34-22.23 33.31-22.23 53.41s7.9 39.07 22.23 53.41c13.56 13.56 31.25 21.34 50.13 22.15v.08h78.86c-5.78-22.03-25.86-38.33-49.68-38.33zm-52.18-63.59c7.09-7.09 16.42-10.99 26.27-10.99v-.05h28.17v.04c4.9 0 9.04 4.14 9.04 9.04s-4.14 9.04-9.04 9.04h-60.04c1.55-2.54 3.42-4.92 5.59-7.09z"/><path d="M946.08 378.1c-7.04 0-12.99-5.95-12.99-12.99v-61.64h12.99v-.05c23.82 0 43.9-16.3 49.68-38.33h-62.7v-38.73c-21.55 5.66-37.6 25-38.29 48.13h-.06v90.61c0 28.32 23.04 51.36 51.36 51.36.3 0 .59.03.89.05l48.82-.15c-5.75-22.08-25.86-38.27-49.71-38.27zM863.81 265v.1c-20.11 0-39.07 7.9-53.41 22.23-14.2 14.2-22.07 32.94-22.22 52.83h-.01v76.35h38.37v-75.77c0-9.85 3.9-19.19 10.99-26.28s16.42-10.99 26.27-10.99v-.1h17.78V265H863.8zM699.4 418.08c-10.44 0-20.58-2.05-30.14-6.09-9.22-3.9-17.5-9.48-24.6-16.58s-12.68-15.38-16.58-24.6c-4.04-9.56-6.09-19.7-6.09-30.14s2.05-20.58 6.09-30.14c3.9-9.22 9.48-17.5 16.58-24.6s15.38-12.68 24.6-16.58c9.56-4.04 19.7-6.09 30.14-6.09s20.58 2.05 30.14 6.09c9.22 3.9 17.5 9.48 24.6 16.58s12.68 15.38 16.58 24.6c4.04 9.56 6.09 19.7 6.09 30.14s-2.05 20.58-6.09 30.14c-3.9 9.22-9.48 17.5-16.58 24.6s-15.38 12.68-24.6 16.58c-9.56 4.04-19.7 6.09-30.14 6.09zm0-114.63c-20.52 0-37.21 16.69-37.21 37.21s16.69 37.21 37.21 37.21 37.21-16.69 37.21-37.21-16.69-37.21-37.21-37.21zM338.11 265.12h-103.7c5.78 22.03 25.86 38.33 49.68 38.33v.05h54.02c4.9 0 9.04 4.14 9.04 9.04s-4.14 9.04-9.04 9.04h-56.34c-26.15 0-47.42 21.27-47.42 47.42s21.27 47.42 47.42 47.42v.04l84.57-.04h19.19V312.54c0-26.14-21.27-47.41-47.41-47.41zm9.04 112.96h-65.39v-.04c-4.9 0-9.04-4.14-9.04-9.04s4.14-9.04 9.04-9.04h65.39v18.13zM184.03 265.04h-38.17c-20.08.02-39.03 7.91-53.36 22.23-14.34 14.34-22.23 33.31-22.23 53.41s7.9 39.07 22.23 53.41c14.33 14.32 33.27 22.22 53.36 22.23h75.34v-189.9c-18.53 4.85-33.01 19.81-37.16 38.61zm-38.12 112.91c-9.85 0-19.19-3.9-26.28-10.99s-10.99-16.42-10.99-26.28 3.9-19.19 10.99-26.28 16.42-10.99 26.28-10.99h36.91v74.54z"/></g></svg>