<?xml version="1.0" encoding="UTF-8"?>
<svg id="Layer_1" xmlns="http://www.w3.org/2000/svg" version="1.1" viewBox="0 0 2500 865">
  <!-- Generator: Adobe Illustrator 30.3.0, SVG Export Plug-In . SVG Version: 2.1.3 Build 182)  -->
  <defs>
    <style>
      .st0 {
        fill: #fff;
      }
    </style>
  </defs>
  <path class="st0" d="M2053.8,314.4h0c0-.1-53.6-.1-53.6-.1-20.4,0-39.7-8.1-54.4-22.7-4.4-4.4-8.3-9.3-11.6-14.7h124.2c54.1,0,98.1-44,98.1-98.1s-44-98.1-98.1-98.1h0c0,0-60,0-60,0h0c-41,.6-79.6,16.8-108.8,46.1-29.7,29.7-46,68.9-46,110.5s16.3,80.8,46,110.5c28.1,28.1,64.7,44.2,103.7,45.8v.2h163.2c-12-45.6-53.5-79.3-102.8-79.3h0ZM1945.9,182.9c14.7-14.7,34-22.7,54.4-22.7h0c0-.1,58.3-.1,58.3-.1h0c10.1,0,18.7,8.6,18.7,18.8s-8.6,18.7-18.7,18.7h-124.2c3.2-5.3,7.1-10.2,11.6-14.7h0Z"/>
  <path class="st0" d="M1760,313.9c-14.6,0-26.9-12.3-26.9-26.9v-127.5h26.9c49.3-.1,90.8-33.8,102.8-79.4h-129.7V0c-44.6,11.7-77.8,51.7-79.2,99.6h-.1v187.5c0,58.6,47.7,106.3,106.3,106.3l102.8-.2c-11.9-45.7-53.5-79.2-102.8-79.2h0ZM1589.8,80.1v.2c-41.6,0-80.8,16.3-110.5,46-29.4,29.4-45.7,68.2-46,109.3h0v158h79.4v-156.8c0-20.4,8.1-39.7,22.7-54.4s34-22.7,54.4-22.7l36.8-.2v-79.4h-36.8,0ZM627.1,197.7h-116.8c-10.2,0-18.9-8.7-18.9-18.9s8.7-18.9,18.9-18.9h112.9c48.9-.2,90.1-33.8,101.9-79.1h-214.8c-54,0-98,44-98,98s43.9,98,98,98h116.8c0,0,0,0,0,0,10.2,0,18.9,8.7,18.9,18.9s-8.7,18.9-18.9,18.9l-120.1.3c-45.7,3.3-83.4,35.7-94.7,78.8h214.8c54,0,98-44,98-98s-43.9-98-98-98h0ZM1019.3,127c-29.7-29.7-68.9-46-110.5-46h-156.3v432c45.6-11.9,79.4-53.5,79.4-102.8v-16.1h76.9c41.6,0,80.8-16.3,110.5-46,29.7-29.7,46-68.9,46-110.5s-16.3-80.8-46-110.5h0ZM963.2,291.8c-14.7,14.7-34,22.7-54.4,22.7h-76.9v-154.2h76.9c20.4,0,39.7,8.1,54.4,22.7s22.7,34,22.7,54.4-8.1,39.7-22.7,54.4Z"/>
  <path class="st0" d="M277.3,238.9c50-1.4,92.2-34.2,107.4-79.4H116.6C52.3,159.9,0,212.3,0,276.6s52.1,116.6,116.2,117c64.1.5,157.8,0,157.8,0h110.7c-15.2-45.2-57.4-78-107.4-79.4H117.1c-20.4,0-37.7-17.2-37.7-37.7s17.2-37.7,37.7-37.7h160.2Z"/>
  <g>
    <path class="st0" d="M253.2.7c-50,1.4-92.2,34.2-107.4,79.4h224.6c50-1.4,92.2-34.2,107.4-79.4,0,0-224.6,0-224.6,0ZM2401.9,197.7h-116.8c-10.2,0-18.9-8.7-18.9-18.9s8.7-18.9,18.9-18.9h112.9c48.9-.2,90.1-33.8,101.9-79.1h-214.8c-54,0-98,44-98,98s43.9,98,98,98h116.8c0,0,0,0,0,0,10.2,0,18.9,8.7,18.9,18.9s-8.7,18.9-18.9,18.9l-120.1.3c-45.7,3.3-83.4,35.7-94.7,78.8h214.8c54,0,98-44,98-98s-43.9-98-98-98h0ZM1249.6,397.5c-21.6,0-42.6-4.2-62.4-12.6-19.1-8.1-36.2-19.6-50.9-34.3s-26.2-31.8-34.3-50.9c-8.4-19.8-12.6-40.8-12.6-62.4s4.2-42.6,12.6-62.4c8.1-19.1,19.6-36.2,34.3-50.9s31.8-26.2,50.9-34.3c19.8-8.4,40.8-12.6,62.4-12.6s42.6,4.2,62.4,12.6c19.1,8.1,36.2,19.6,50.9,34.3,14.7,14.7,26.2,31.8,34.3,50.9,8.4,19.8,12.6,40.8,12.6,62.4s-4.2,42.6-12.6,62.4c-8.1,19.1-19.6,36.2-34.3,50.9s-31.8,26.2-50.9,34.3c-19.8,8.4-40.8,12.6-62.4,12.6ZM1249.6,160.4c-42.5,0-77,34.5-77,77s34.5,77,77,77,77-34.5,77-77-34.5-77-77-77h0ZM1149.1,625.2h-151.6c-20.7,0-38.1-17.5-38.1-38.2s17.5-38.1,38.1-38.1h172.1c48.9,0,89.8-34.5,99.9-80.4h-271.9c-65.4,0-118.5,53.2-118.5,118.5s53.2,118.5,118.5,118.5h0c0-.1,0,0,0,0h150.9c20.7,0,38.1,17.5,38.1,38.2s-17.5,38.1-38.1,38.1h-169.6c-48.9,0-89.8,34.5-99.9,80.4h269.5c65.4,0,118.5-53.2,118.5-118.5s-52.8-118.1-117.8-118.5h0ZM2251.3,782.5h0c0-.1-53.6-.1-53.6-.1-20.4,0-39.7-8.1-54.4-22.7-4.4-4.4-8.3-9.3-11.6-14.7h124.2c54.1,0,98.1-44,98.1-98.1s-44-98.1-98.1-98.1h0c0,0-60,0-60,0h0c-41,.6-79.6,16.8-108.8,46.1-29.7,29.7-46,68.9-46,110.5s16.3,80.8,46,110.5c28.1,28.1,64.7,44.2,103.7,45.8v.2h163.2c-12-45.6-53.5-79.3-102.8-79.3h0ZM2143.4,650.9c14.7-14.7,34-22.7,54.4-22.7h0c0-.1,58.3-.1,58.3-.1h0c10.1,0,18.7,8.6,18.7,18.8s-8.6,18.7-18.7,18.7h-124.2c3.2-5.3,7.1-10.2,11.6-14.7h0Z"/>
    <path class="st0" d="M1957.5,782.3c-14.6,0-26.9-12.3-26.9-26.9v-127.5h26.9c49.3-.1,90.8-33.8,102.8-79.4h-129.7v-80.1c-44.6,11.7-77.8,51.7-79.2,99.6h-.1v187.5c0,58.6,47.7,106.3,106.3,106.3s1.2,0,1.8.1l101-.3c-11.9-45.7-53.5-79.2-102.8-79.2h0ZM1787.3,548.3v.2c-41.6,0-80.8,16.3-110.5,46-29.4,29.4-45.7,68.2-46,109.3h0v158h79.4v-156.8c0-20.4,8.1-39.7,22.7-54.4s34-22.7,54.4-22.7v-.2h36.8v-79.4h-36.8,0ZM1447.1,865c-21.6,0-42.6-4.2-62.4-12.6-19.1-8.1-36.2-19.6-50.9-34.3s-26.2-31.8-34.3-50.9c-8.4-19.8-12.6-40.8-12.6-62.4s4.2-42.6,12.6-62.4c8.1-19.1,19.6-36.2,34.3-50.9s31.8-26.2,50.9-34.3c19.8-8.4,40.8-12.6,62.4-12.6s42.6,4.2,62.4,12.6c19.1,8.1,36.2,19.6,50.9,34.3s26.2,31.8,34.3,50.9c8.4,19.8,12.6,40.8,12.6,62.4s-4.2,42.6-12.6,62.4c-8.1,19.1-19.6,36.2-34.3,50.9s-31.8,26.2-50.9,34.3c-19.8,8.4-40.8,12.6-62.4,12.6ZM1447.1,627.8c-42.5,0-77,34.5-77,77s34.5,77,77,77,77-34.5,77-77-34.5-77-77-77ZM699.6,548.5h-214.6c12,45.6,53.5,79.3,102.8,79.3h0c0,.1,111.8.1,111.8.1,10.1,0,18.7,8.6,18.7,18.7s-8.6,18.7-18.7,18.7h-116.6c-54.1,0-98.1,44-98.1,98.1s44,98.1,98.1,98.1h0c0,0,175,0,175,0h39.7v-214.9c0-54.1-44-98.1-98.1-98.1h0ZM718.3,782.2h-135.3c-10.1,0-18.7-8.6-18.7-18.8s8.6-18.7,18.7-18.7h135.3v37.5h0ZM380.9,548.4h-79c-41.5,0-80.8,16.4-110.4,46-29.7,29.7-46,68.9-46,110.5s16.3,80.8,46,110.5c29.6,29.6,68.8,46,110.4,46h155.9v-392.9c-38.3,10-68.3,41-76.9,79.9h0ZM302,782c-20.4,0-39.7-8.1-54.4-22.7s-22.7-34-22.7-54.4,8.1-39.7,22.7-54.4,34-22.7,54.4-22.7h76.4v154.2h-76.4Z"/>
  </g>
</svg>