<svg width="32" height="32" viewBox="0 0 32 32" fill="none" xmlns="http://www.w3.org/2000/svg">
<g clip-path="url(#clip0_15_342)">
<path fill-rule="evenodd" clip-rule="evenodd" d="M20.0825 3.54249L20.504 3.05756L21.7552 4.49728C22.2768 5.09749 23.0466 5.39673 23.893 5.20108L25.7556 4.77051L25.7601 4.84615C25.7998 5.49421 25.846 6.24664 25.9638 6.92496C26.081 7.60039 26.5384 8.19192 27.1853 8.46579L29.0224 9.24567L27.9926 10.9589C27.8012 11.2781 27.7001 11.6432 27.7001 12.0154C27.7001 12.3875 27.8018 12.7537 27.9933 13.0729L29.0226 14.7854C28.3629 15.0819 28.0585 15.8532 28.3425 16.5222C28.6302 17.2 29.413 17.5163 30.0909 17.2286L30.7082 16.9664L30.7106 16.9655C31.8581 16.4812 32.3134 15.0758 31.6682 14.0107L31.666 14.007L30.4689 12.0154L31.6684 10.02C32.3134 8.95483 31.858 7.54936 30.7104 7.0652L30.7082 7.06428L28.5417 6.1446C28.4868 5.72963 28.4617 5.31588 28.434 4.85708C28.4166 4.57108 28.3984 4.26632 28.371 3.93407C28.3274 3.40476 28.0948 2.86616 27.6625 2.47545C27.2012 2.05832 26.5485 1.85133 25.857 2.01005L23.5833 2.53567L22.056 0.778179L22.055 0.777015C21.2424 -0.160374 19.772 -0.162539 18.9566 0.772797L18.0697 1.79328C17.5868 2.34909 17.6457 3.19125 18.2016 3.67428C18.7573 4.15732 19.5996 4.09831 20.0825 3.54249ZM11.9115 28.4636L11.4901 28.9486L10.2389 27.5088C9.71727 26.9086 8.94732 26.6094 8.10097 26.805L6.23851 27.2356L6.23387 27.1599C6.19416 26.5119 6.14805 25.7595 6.03025 25.0811C5.91295 24.4058 5.45561 23.8142 4.80873 23.5403L4.80748 23.5398L2.97159 22.7604L4.00136 21.0472C4.1928 20.728 4.29392 20.3628 4.29392 19.9907C4.29392 19.6186 4.19217 19.2524 4.00075 18.9332L2.97144 17.2207C3.63113 16.9242 3.93551 16.153 3.65149 15.4839C3.36376 14.806 2.581 14.4898 1.90316 14.7775L1.28585 15.0396L1.28344 15.0407C0.135953 15.525 -0.319363 16.9303 0.325757 17.9954L0.328038 17.9991L1.52505 19.9907L0.325706 21.9862C-0.319388 23.0512 0.136048 24.4567 1.28369 24.9408L1.28585 24.9418L3.45232 25.8615C3.50729 26.2764 3.53229 26.6903 3.56001 27.1491C3.57731 27.4354 3.59568 27.7394 3.62304 28.072C3.66659 28.6014 3.89932 29.1399 4.33149 29.5307C4.79291 29.9478 5.44551 30.1547 6.13705 29.996L8.41065 29.4704L9.938 31.2279L9.93901 31.2291C10.7517 32.1664 12.222 32.1687 13.0374 31.2332L13.9242 30.2128C14.4073 29.657 14.3484 28.8148 13.7925 28.3318C13.2367 27.8488 12.3945 27.9078 11.9115 28.4636ZM3.19312 11.8885L1.95844 9.25981L0.552021 7.82456L7.07872 0.109578L8.24439 1.12917L10.1564 0.901099C11.0398 0.782171 11.9382 0.842799 12.799 1.07943C13.6597 1.31606 14.4654 1.72391 15.1688 2.27904L15.8829 2.84703C16.4549 3.29317 16.8744 3.90896 17.0824 4.60768C17.2904 5.3064 17.2764 6.05288 17.0424 6.74205L14.7769 4.9548C14.6948 4.88953 14.6009 4.84121 14.5004 4.81257C14.4 4.78393 14.2949 4.77556 14.1914 4.78791C14.0878 4.80027 13.9877 4.83311 13.8968 4.88457C13.8058 4.93604 13.726 5.00511 13.6616 5.08784C13.5972 5.17057 13.5496 5.26536 13.5214 5.36677C13.4933 5.46819 13.4853 5.57425 13.4978 5.67891C13.5102 5.78356 13.543 5.88475 13.5942 5.97671C13.6453 6.06867 13.714 6.14959 13.796 6.21485L17.7513 9.43348C17.9553 9.59567 18.1258 9.79679 18.253 10.0254C18.3802 10.254 18.4617 10.5055 18.4928 10.7657C18.5238 11.0258 18.5038 11.2895 18.434 11.5416C18.364 11.7937 18.2456 12.0293 18.0854 12.2349L12.352 17.8176C12.192 18.0234 11.9933 18.1951 11.7673 18.3231C11.5413 18.451 11.2925 18.5327 11.0351 18.5634C10.7776 18.594 10.5165 18.5732 10.2668 18.502C10.0171 18.4308 9.78357 18.3106 9.57963 18.1483L5.76277 15.1418C4.65969 14.2818 3.77811 13.1657 3.19312 11.8885ZM30.4452 22.4888L29.1765 19.8763C28.5752 18.6068 27.6792 17.5022 26.565 16.6566L22.7096 13.6996C22.5036 13.54 22.2685 13.4228 22.018 13.3548C21.7673 13.2868 21.506 13.2694 21.2489 13.3034C20.992 13.3374 20.7441 13.4223 20.5198 13.5532C20.2956 13.684 20.0992 13.8584 19.9417 14.0662L14.281 19.7226C14.1236 19.9302 14.0081 20.1674 13.9416 20.4203C13.8749 20.6732 13.8584 20.9371 13.8928 21.1968C13.9272 21.4566 14.0118 21.7071 14.142 21.934C14.2721 22.161 14.4453 22.3599 14.6514 22.5194L18.648 25.6866C18.7309 25.7508 18.8005 25.8308 18.8528 25.9222C18.9052 26.0134 18.9392 26.1142 18.953 26.2187C18.9669 26.3231 18.9602 26.4292 18.9334 26.5311C18.9066 26.6328 18.8602 26.7282 18.7969 26.8118C18.7336 26.8954 18.6546 26.9655 18.5644 27.018C18.4741 27.0707 18.3745 27.1048 18.271 27.1186C18.1677 27.1322 18.0625 27.1252 17.9617 27.0979C17.8609 27.0706 17.7664 27.0234 17.6834 26.9592L15.395 25.2014C15.17 25.8936 15.1656 26.6402 15.3826 27.3362C15.5996 28.0322 16.027 28.6424 16.6048 29.0811L17.3262 29.6398C18.0366 30.1858 18.8476 30.5832 19.7113 30.8087C20.575 31.0342 21.4741 31.0832 22.356 30.9528L24.2648 30.7L25.4436 31.7046L31.87 23.9058L30.4452 22.4888Z" fill="#E8181A"/>
</g>
<defs>
<clipPath id="clip0_15_342">
<rect width="32" height="32" fill="white"/>
</clipPath>
</defs>
</svg>
