<svg width="23" height="23" viewBox="0 0 23 23" fill="none" xmlns="http://www.w3.org/2000/svg">
<g clip-path="url(#clip0_32_1734)">
<path d="M6.72339 0.0802637C5.5023 0.137876 4.66842 0.332746 3.93943 0.619199C3.18497 0.913226 2.5455 1.30779 1.90924 1.94634C1.27299 2.58489 0.881182 3.22482 0.58922 3.98043C0.30667 4.71102 0.115242 5.54559 0.0613029 6.76737C0.00736355 7.98916 -0.00457198 8.38188 0.00139579 11.4984C0.00736355 14.615 0.0211353 15.0056 0.0803539 16.2299C0.138654 17.4508 0.332836 18.2845 0.619289 19.0137C0.913775 19.7681 1.30788 20.4074 1.94666 21.0439C2.58544 21.6804 3.22491 22.0712 3.98235 22.3637C4.71226 22.6458 5.54705 22.8381 6.76861 22.8916C7.99017 22.9451 8.38335 22.9575 11.499 22.9515C14.6146 22.9455 15.0069 22.9317 16.231 22.8737C17.455 22.8156 18.2843 22.62 19.0138 22.335C19.7682 22.0398 20.4079 21.6464 21.044 21.0074C21.68 20.3684 22.0716 19.728 22.3633 18.9719C22.6461 18.242 22.8382 17.4072 22.8912 16.1866C22.9447 14.9616 22.9573 14.5705 22.9513 11.4544C22.9454 8.33827 22.9314 7.94761 22.8733 6.72376C22.8152 5.49991 22.6208 4.66879 22.3346 3.93911C22.0397 3.18465 21.646 2.54587 21.0075 1.90892C20.3689 1.27198 19.7281 0.880633 18.9722 0.589589C18.2419 0.307039 17.4075 0.114464 16.186 0.0616718C14.9644 0.00888005 14.5712 -0.00466219 11.4545 0.00130558C8.33767 0.00727334 7.94747 0.020586 6.72339 0.0802637ZM6.85744 20.827C5.73848 20.7783 5.13092 20.5924 4.72603 20.4368C4.18985 20.2302 3.80791 19.9805 3.4044 19.5808C3.00089 19.1812 2.75299 18.7979 2.54366 18.2629C2.38644 17.858 2.19707 17.2511 2.14474 16.1322C2.08782 14.9228 2.07588 14.5597 2.06923 11.4957C2.06257 8.43169 2.07428 8.06903 2.1273 6.85918C2.17504 5.74115 2.36211 5.13289 2.5175 4.72823C2.72407 4.19136 2.97288 3.81012 3.37341 3.40683C3.77394 3.00355 4.15611 2.7552 4.6916 2.54587C5.09603 2.38795 5.70291 2.2002 6.8214 2.14695C8.03171 2.08956 8.39437 2.07809 11.4579 2.07143C14.5214 2.06477 14.885 2.07625 16.0958 2.1295C17.2138 2.17816 17.8223 2.36339 18.2265 2.5197C18.7629 2.72628 19.1446 2.9744 19.5479 3.37562C19.9512 3.77683 20.1997 4.15762 20.4091 4.69426C20.5672 5.09755 20.755 5.70419 20.8078 6.82338C20.8654 8.03368 20.8785 8.39657 20.884 11.4599C20.8895 14.5232 20.8787 14.887 20.8257 16.0964C20.7768 17.2153 20.5913 17.8231 20.4355 18.2285C20.2289 18.7644 19.9799 19.1466 19.5791 19.5496C19.1783 19.9527 18.7966 20.201 18.2609 20.4104C17.8569 20.5681 17.2494 20.7563 16.1318 20.8095C14.9215 20.8664 14.5588 20.8784 11.4942 20.885C8.42948 20.8917 8.06798 20.8793 6.85767 20.827M16.2133 5.34268C16.2137 5.61508 16.295 5.88123 16.4467 6.10746C16.5984 6.33369 16.8138 6.50985 17.0657 6.61365C17.3175 6.71745 17.5945 6.74424 17.8616 6.69062C18.1286 6.63699 18.3738 6.50538 18.5661 6.31241C18.7583 6.11944 18.889 5.87379 18.9417 5.60653C18.9943 5.33926 18.9665 5.06239 18.8618 4.81093C18.7571 4.55946 18.5801 4.3447 18.3533 4.19381C18.1265 4.04292 17.8601 3.96267 17.5877 3.96321C17.2225 3.96394 16.8726 4.10967 16.6149 4.36836C16.3571 4.62705 16.2127 4.97751 16.2133 5.34268ZM5.58378 11.4879C5.59021 14.7426 8.23347 17.3751 11.4875 17.3689C14.7415 17.3627 17.3758 14.7196 17.3697 11.4649C17.3635 8.21019 14.7195 5.57703 11.465 5.58346C8.21051 5.58989 5.57758 8.23361 5.58378 11.4879ZM7.65092 11.4837C7.64942 10.7271 7.87233 9.98704 8.29144 9.3571C8.71055 8.72716 9.30705 8.23565 10.0055 7.94472C10.704 7.65379 11.473 7.5765 12.2154 7.72265C12.9578 7.86879 13.6401 8.23179 14.1762 8.76574C14.7123 9.29969 15.078 9.98062 15.2271 10.7224C15.3761 11.4642 15.3019 12.2335 15.0137 12.9332C14.7256 13.6328 14.2364 14.2312 13.6081 14.6528C12.9799 15.0744 12.2407 15.3002 11.4841 15.3017C10.9817 15.3028 10.484 15.2049 10.0194 15.0136C9.55488 14.8222 9.13257 14.5413 8.77662 14.1867C8.42067 13.8322 8.13805 13.411 7.9449 12.9472C7.75175 12.4834 7.65185 11.9861 7.65092 11.4837Z" fill="#8A8A89"/>
</g>
<defs>
<clipPath id="clip0_32_1734">
<rect width="22.9529" height="22.9529" fill="white"/>
</clipPath>
</defs>
</svg>
