<svg width="59" height="41" viewBox="0 0 59 41" fill="none" xmlns="http://www.w3.org/2000/svg">
<g clip-path="url(#clip0_73_259)">
<path d="M2.82031 21.9377C4.68627 21.1055 6.57647 20.2733 8.46666 19.4197V25.459H25.8419V14.5541C26.6658 15.173 27.4655 15.7492 28.2652 16.3467C29.8889 17.5631 31.5367 18.7581 33.1603 19.9745C33.233 20.0386 33.2815 20.1453 33.2815 20.2306C33.2815 21.9165 33.2815 23.6024 33.2815 25.2882V25.4803H50.4629V19.4624H49.0089C47.8942 19.4624 46.7552 19.4624 45.6405 19.4624C45.5678 19.4624 45.4708 19.4409 45.4224 19.3983C43.5806 17.7764 41.7389 16.176 39.8972 14.5541C39.873 14.5328 39.873 14.5328 39.8487 14.4901C39.8972 14.4901 39.9457 14.4688 39.9699 14.4688C45.3497 14.4688 50.7052 14.4688 56.085 14.4688C56.1092 14.4688 56.1577 14.4688 56.1819 14.4688V30.6446C38.3947 30.6446 20.6318 30.6446 2.84455 30.6446V21.9377H2.82031Z" fill="#E3E2E1"/>
<path d="M56.1611 7.72518C54.2709 8.55745 52.4049 9.38972 50.4905 10.222V4.97228H33.3091V16.1119C32.7518 15.6851 32.2186 15.301 31.6855 14.9168C29.7711 13.5084 27.8809 12.0999 25.9907 10.6915C25.918 10.6488 25.8695 10.5421 25.8695 10.4567C25.8695 8.70683 25.8695 6.93559 25.8695 5.18569V4.99362C25.7726 4.99362 25.6999 4.99362 25.6272 4.99362C21.9922 4.99362 18.3815 4.99362 14.7465 4.99362C14.6738 4.99362 14.5526 4.97228 14.5041 4.9296C12.6624 3.30774 10.8207 1.68588 8.97895 0.0853611C8.95472 0.0640208 8.93048 0.0426805 8.90625 0H56.1611V7.72518Z" fill="#E3E2E1"/>
<path d="M55.8959 35.4773C56.7683 35.4773 57.156 35.9894 57.156 36.5229C57.156 37.0351 56.7683 37.5686 55.8959 37.5686H53.7634V35.4773H55.8959ZM58.9251 40.7696L56.6714 38.5503C58.0769 38.2942 58.5373 37.3979 58.5373 36.5016C58.5373 35.3705 57.6165 34.3462 55.8717 34.3462C54.7085 34.3462 53.521 34.3249 52.3579 34.3249V40.8763H53.7634V38.6996H55.1931L57.3499 40.8763H58.9493V40.7696H58.9251ZM48.9652 38.4649H46.2026L47.5839 35.6907L48.9652 38.4649ZM50.1526 40.855H51.6793L48.3594 34.3249H46.8327L43.5127 40.855H45.0152L45.6452 39.6173H49.5226L50.1526 40.855ZM43.0765 39.6386H38.9084V38.1661H42.9311V37.0137H38.9084V35.4986H43.0765V34.3035H37.5271C37.5271 36.4802 37.5271 38.657 37.5271 40.8337H43.0765V39.6386ZM36.0973 35.1358C35.3461 34.4743 34.3283 34.1328 33.3348 34.1328C30.7176 34.1328 29.409 35.84 29.409 37.6753C29.409 39.3825 30.5479 41.0044 33.3348 41.0044C34.6433 41.0044 35.5642 40.5562 36.2912 39.8307V37.0778H33.1167V38.1875H35.0068V39.3398C34.4252 39.7453 33.9164 39.852 33.3348 39.852C31.493 39.852 30.7903 38.7423 30.7903 37.6753C30.7903 36.3309 31.7596 35.2638 33.3348 35.2638C33.9891 35.2638 34.716 35.4986 35.2249 35.9254L36.0973 35.1358ZM26.7191 38.4649H23.9565L25.3378 35.6907L26.7191 38.4649ZM27.9065 40.855H29.4332L26.1132 34.3249H24.5865L21.2666 40.855H22.7691L23.3991 39.6173H27.2764L27.9065 40.855ZM16.6623 34.3035H14.9902V34.3676L17.8497 38.1448V40.8337H19.2552V38.1448L22.2117 34.3676V34.3035H20.5396L18.5767 36.9924L16.6623 34.3035ZM8.9561 37.654C8.90764 36.3522 9.85273 35.3065 11.4279 35.3065C13.1242 35.3279 13.8512 36.5443 13.827 37.6326C13.8028 38.6996 13.1485 39.852 11.4037 39.852C9.65887 39.8733 9.00457 38.721 8.9561 37.654ZM11.4279 34.1968C9.27114 34.1968 7.57481 35.584 7.57481 37.6326C7.57481 39.3398 8.78647 41.0044 11.3794 41.0044C13.9724 41.0044 15.1598 39.3185 15.184 37.6326C15.2325 35.9254 13.9724 34.2182 11.4279 34.1968ZM6.58124 34.3035C5.36958 34.3035 4.15792 34.3035 2.94626 34.3035V35.4559H5.17572V38.0594C5.17572 39.0411 4.59412 39.8307 3.30976 39.8307C2.04963 39.8307 1.4438 39.2545 1.4438 38.1448H0.0625C0.0625 40.0014 1.41956 40.983 3.30976 40.983C5.34535 40.983 6.58124 39.7453 6.58124 38.0594V34.3035Z" fill="#E3E2E1"/>
<path d="M55.8959 35.4773C56.7683 35.4773 57.156 35.9894 57.156 36.5229C57.156 37.0351 56.7683 37.5686 55.8959 37.5686H53.7634V35.4773H55.8959ZM58.9251 40.7696L56.6714 38.5503C58.0769 38.2942 58.5373 37.3979 58.5373 36.5016C58.5373 35.3705 57.6165 34.3462 55.8717 34.3462C54.7085 34.3462 53.521 34.3249 52.3579 34.3249V40.8763H53.7634V38.6996H55.1931L57.3499 40.8763H58.9493V40.7696H58.9251ZM48.9652 38.4649H46.2026L47.5839 35.6907L48.9652 38.4649ZM50.1526 40.855H51.6793L48.3594 34.3249H46.8327L43.5127 40.855H45.0152L45.6452 39.6173H49.5226L50.1526 40.855ZM43.0765 39.6386H38.9084V38.1661H42.9311V37.0137H38.9084V35.4986H43.0765V34.3035H37.5271C37.5271 36.4802 37.5271 38.657 37.5271 40.8337H43.0765V39.6386ZM36.0973 35.1358C35.3461 34.4743 34.3283 34.1328 33.3348 34.1328C30.7176 34.1328 29.409 35.84 29.409 37.6753C29.409 39.3825 30.5479 41.0044 33.3348 41.0044C34.6433 41.0044 35.5642 40.5562 36.2912 39.8307V37.0778H33.1167V38.1875H35.0068V39.3398C34.4252 39.7453 33.9164 39.852 33.3348 39.852C31.493 39.852 30.7903 38.7423 30.7903 37.6753C30.7903 36.3309 31.7596 35.2638 33.3348 35.2638C33.9891 35.2638 34.716 35.4986 35.2249 35.9254L36.0973 35.1358ZM26.7191 38.4649H23.9565L25.3378 35.6907L26.7191 38.4649ZM27.9065 40.855H29.4332L26.1132 34.3249H24.5865L21.2666 40.855H22.7691L23.3991 39.6173H27.2764L27.9065 40.855ZM16.6623 34.3035H14.9902V34.3676L17.8497 38.1448V40.8337H19.2552V38.1448L22.2117 34.3676V34.3035H20.5396L18.5767 36.9924L16.6623 34.3035ZM8.9561 37.654C8.90764 36.3522 9.85273 35.3065 11.4279 35.3065C13.1242 35.3279 13.8512 36.5443 13.827 37.6326C13.8028 38.6996 13.1485 39.852 11.4037 39.852C9.65887 39.8733 9.00457 38.721 8.9561 37.654ZM11.4279 34.1968C9.27114 34.1968 7.57481 35.584 7.57481 37.6326C7.57481 39.3398 8.78647 41.0044 11.3794 41.0044C13.9724 41.0044 15.1598 39.3185 15.184 37.6326C15.2325 35.9254 13.9724 34.2182 11.4279 34.1968ZM6.58124 34.3035C5.36958 34.3035 4.15792 34.3035 2.94626 34.3035V35.4559H5.17572V38.0594C5.17572 39.0411 4.59412 39.8307 3.30976 39.8307C2.04963 39.8307 1.4438 39.2545 1.4438 38.1448H0.0625C0.0625 40.0014 1.41956 40.983 3.30976 40.983C5.34535 40.983 6.58124 39.7453 6.58124 38.0594V34.3035Z" fill="#E3E2E1"/>
<path d="M55.8959 35.4773C56.7683 35.4773 57.156 35.9894 57.156 36.5229C57.156 37.0351 56.7683 37.5686 55.8959 37.5686H53.7634V35.4773H55.8959ZM58.9251 40.7696L56.6714 38.5503C58.0769 38.2942 58.5373 37.3979 58.5373 36.5016C58.5373 35.3705 57.6165 34.3462 55.8717 34.3462C54.7085 34.3462 53.521 34.3249 52.3579 34.3249V40.8763H53.7634V38.6996H55.1931L57.3499 40.8763H58.9493V40.7696H58.9251ZM48.9652 38.4649H46.2026L47.5839 35.6907L48.9652 38.4649ZM50.1526 40.855H51.6793L48.3594 34.3249H46.8327L43.5127 40.855H45.0152L45.6452 39.6173H49.5226L50.1526 40.855ZM43.0765 39.6386H38.9084V38.1661H42.9311V37.0137H38.9084V35.4986H43.0765V34.3035H37.5271C37.5271 36.4802 37.5271 38.657 37.5271 40.8337H43.0765V39.6386ZM36.0973 35.1358C35.3461 34.4743 34.3283 34.1328 33.3348 34.1328C30.7176 34.1328 29.409 35.84 29.409 37.6753C29.409 39.3825 30.5479 41.0044 33.3348 41.0044C34.6433 41.0044 35.5642 40.5562 36.2912 39.8307V37.0778H33.1167V38.1875H35.0068V39.3398C34.4252 39.7453 33.9164 39.852 33.3348 39.852C31.493 39.852 30.7903 38.7423 30.7903 37.6753C30.7903 36.3309 31.7596 35.2638 33.3348 35.2638C33.9891 35.2638 34.716 35.4986 35.2249 35.9254L36.0973 35.1358ZM26.7191 38.4649H23.9565L25.3378 35.6907L26.7191 38.4649ZM27.9065 40.855H29.4332L26.1132 34.3249H24.5865L21.2666 40.855H22.7691L23.3991 39.6173H27.2764L27.9065 40.855ZM16.6623 34.3035H14.9902V34.3676L17.8497 38.1448V40.8337H19.2552V38.1448L22.2117 34.3676V34.3035H20.5396L18.5767 36.9924L16.6623 34.3035ZM8.9561 37.654C8.90764 36.3522 9.85273 35.3065 11.4279 35.3065C13.1242 35.3279 13.8512 36.5443 13.827 37.6326C13.8028 38.6996 13.1485 39.852 11.4037 39.852C9.65887 39.8733 9.00457 38.721 8.9561 37.654ZM11.4279 34.1968C9.27114 34.1968 7.57481 35.584 7.57481 37.6326C7.57481 39.3398 8.78647 41.0044 11.3794 41.0044C13.9724 41.0044 15.1598 39.3185 15.184 37.6326C15.2325 35.9254 13.9724 34.2182 11.4279 34.1968ZM6.58124 34.3035C5.36958 34.3035 4.15792 34.3035 2.94626 34.3035V35.4559H5.17572V38.0594C5.17572 39.0411 4.59412 39.8307 3.30976 39.8307C2.04963 39.8307 1.4438 39.2545 1.4438 38.1448H0.0625C0.0625 40.0014 1.41956 40.983 3.30976 40.983C5.34535 40.983 6.58124 39.7453 6.58124 38.0594V34.3035Z" fill="#E3E2E1"/>
<path d="M55.8959 35.4773C56.7683 35.4773 57.156 35.9894 57.156 36.5229C57.156 37.0351 56.7683 37.5686 55.8959 37.5686H53.7634V35.4773H55.8959ZM58.9251 40.7696L56.6714 38.5503C58.0769 38.2942 58.5373 37.3979 58.5373 36.5016C58.5373 35.3705 57.6165 34.3462 55.8717 34.3462C54.7085 34.3462 53.521 34.3249 52.3579 34.3249V40.8763H53.7634V38.6996H55.1931L57.3499 40.8763H58.9493V40.7696H58.9251ZM48.9652 38.4649H46.2026L47.5839 35.6907L48.9652 38.4649ZM50.1526 40.855H51.6793L48.3594 34.3249H46.8327L43.5127 40.855H45.0152L45.6452 39.6173H49.5226L50.1526 40.855ZM43.0765 39.6386H38.9084V38.1661H42.9311V37.0137H38.9084V35.4986H43.0765V34.3035H37.5271C37.5271 36.4802 37.5271 38.657 37.5271 40.8337H43.0765V39.6386ZM36.0973 35.1358C35.3461 34.4743 34.3283 34.1328 33.3348 34.1328C30.7176 34.1328 29.409 35.84 29.409 37.6753C29.409 39.3825 30.5479 41.0044 33.3348 41.0044C34.6433 41.0044 35.5642 40.5562 36.2912 39.8307V37.0778H33.1167V38.1875H35.0068V39.3398C34.4252 39.7453 33.9164 39.852 33.3348 39.852C31.493 39.852 30.7903 38.7423 30.7903 37.6753C30.7903 36.3309 31.7596 35.2638 33.3348 35.2638C33.9891 35.2638 34.716 35.4986 35.2249 35.9254L36.0973 35.1358ZM26.7191 38.4649H23.9565L25.3378 35.6907L26.7191 38.4649ZM27.9065 40.855H29.4332L26.1132 34.3249H24.5865L21.2666 40.855H22.7691L23.3991 39.6173H27.2764L27.9065 40.855ZM16.6623 34.3035H14.9902V34.3676L17.8497 38.1448V40.8337H19.2552V38.1448L22.2117 34.3676V34.3035H20.5396L18.5767 36.9924L16.6623 34.3035ZM8.9561 37.654C8.90764 36.3522 9.85273 35.3065 11.4279 35.3065C13.1242 35.3279 13.8512 36.5443 13.827 37.6326C13.8028 38.6996 13.1485 39.852 11.4037 39.852C9.65887 39.8733 9.00457 38.721 8.9561 37.654ZM11.4279 34.1968C9.27114 34.1968 7.57481 35.584 7.57481 37.6326C7.57481 39.3398 8.78647 41.0044 11.3794 41.0044C13.9724 41.0044 15.1598 39.3185 15.184 37.6326C15.2325 35.9254 13.9724 34.2182 11.4279 34.1968ZM6.58124 34.3035C5.36958 34.3035 4.15792 34.3035 2.94626 34.3035V35.4559H5.17572V38.0594C5.17572 39.0411 4.59412 39.8307 3.30976 39.8307C2.04963 39.8307 1.4438 39.2545 1.4438 38.1448H0.0625C0.0625 40.0014 1.41956 40.983 3.30976 40.983C5.34535 40.983 6.58124 39.7453 6.58124 38.0594V34.3035Z" fill="#E3E2E1"/>
</g>
<defs>
<clipPath id="clip0_73_259">
<rect width="59" height="41" fill="white"/>
</clipPath>
</defs>
</svg>
