<?xml version="1.0" encoding="UTF-8"?>
<svg id="Layer_2" data-name="Layer 2" xmlns="http://www.w3.org/2000/svg" viewBox="0 0 282.767 217.561">
  <g id="Layer_1-2" data-name="Layer 1">
    <g>
      <g>
        <polygon points="53.898 1.832 53.898 65.781 55.748 66.449 56.711 66.801 56.711 67.624 41.217 67.624 41.217 34.981 33.916 67.624 22.979 67.624 15.678 34.981 15.678 67.624 0 67.624 0 .003 19.237 .003 28.331 35.529 37.503 .003 56.711 .003 56.711 .812 55.748 1.164 53.898 1.832" fill="#f4f4f4"/>
        <polygon points="136.437 .003 136.437 67.624 121.856 67.624 111.995 36.444 111.995 67.624 96.599 67.624 96.599 66.794 97.562 66.442 99.412 65.774 99.412 1.832 97.562 1.164 96.599 .812 96.599 .003 111.341 .003 121.167 31.077 121.167 .003 136.437 .003" fill="#f4f4f4"/>
        <path d="M86.147.001h-18.98l-10.46,3.81v60l10.48,3.81h18.92l10.49-3.82V3.811L86.147.001ZM86.707,29.651h-6.67v-5.52h-6.76v6.05l13.43,4.66v6.36c0,4.21-2.26,6.69-7.43,7.26v2.99h-5.26v-2.99c-5.15-.59-7.41-3.07-7.41-7.26v-3.23h6.67v5.46h6.76v-6l-13.43-4.67v-6.38c0-4.19,2.26-6.67,7.41-7.26v-2.96h5.26v2.96c5.17.59,7.43,3.07,7.43,7.26v3.27Z" fill="#f4f4f4"/>
        <polygon points="213.421 0 213.421 42.082 201.323 46.485 201.323 67.62 185.92 67.62 185.92 46.485 173.632 42.011 173.632 0 188.951 0 188.951 33.81 198.017 33.81 198.017 0 213.421 0" fill="#f4f4f4"/>
        <polygon points="154.655 12.33 154.655 27.044 168.454 27.044 168.454 39.381 154.655 39.381 154.655 55.333 171.521 55.333 171.521 67.62 139.251 67.62 139.251 0 171.521 0 171.521 12.33 154.655 12.33" fill="#f4f4f4"/>
      </g>
      <g>
        <polygon points="116.583 149.94 116.583 217.56 101.088 217.56 101.088 184.918 93.787 217.56 82.85 217.56 75.549 184.918 75.549 217.56 59.872 217.56 59.872 149.94 79.108 149.94 88.203 185.466 97.374 149.94 116.583 149.94" fill="#f4f4f4"/>
        <polygon points="56.711 149.94 56.711 217.56 41.217 217.56 41.217 184.918 33.916 217.56 22.979 217.56 15.678 184.918 15.678 217.56 0 217.56 0 149.94 19.237 149.94 28.331 185.466 37.503 149.94 56.711 149.94" fill="#f4f4f4"/>
        <path d="M149.287,149.941h-18.95l-10.59,3.85v63.77h15.27v-21.5h9.25v21.5h15.27v-63.89l-10.25-3.73ZM144.267,183.781h-9.25v-21.52h9.25v21.52Z" fill="#f4f4f4"/>
      </g>
      <g>
        <polygon points="53.898 76.802 53.898 140.744 55.748 141.419 56.711 141.771 56.711 142.587 41.217 142.587 41.217 109.944 33.916 142.587 22.979 142.587 15.678 109.944 15.678 142.587 0 142.587 0 74.967 19.237 74.967 28.331 110.493 37.503 74.967 56.711 74.967 56.711 75.782 55.748 76.134 53.898 76.802" fill="#f4f4f4"/>
        <polygon points="111.868 74.967 111.868 142.587 96.599 142.587 96.599 141.764 97.562 141.412 99.412 140.744 99.412 76.809 97.562 76.141 96.599 75.789 96.599 74.967 111.868 74.967" fill="#f4f4f4"/>
        <polygon points="139.295 96.478 139.295 87.293 130.039 87.293 130.039 129.874 139.295 129.874 139.295 121.089 154.565 121.089 154.565 138.856 144.296 142.59 125.368 142.59 114.769 138.729 114.769 78.824 125.361 74.97 144.317 74.97 154.565 78.698 154.565 96.478 139.295 96.478" fill="#f4f4f4"/>
        <path d="M187.017,74.971h-18.96l-10.58,3.85v63.77h15.26v-21.51h9.26v21.51h15.27v-63.9l-10.25-3.72ZM181.997,108.801h-9.26v-21.51h9.26v21.51Z" fill="#f4f4f4"/>
        <polygon points="239.968 74.97 239.968 142.59 225.507 142.59 215.765 111.418 215.765 142.59 200.172 142.59 200.172 74.97 214.59 74.97 214.59 74.977 224.332 106.15 224.332 74.97 239.968 74.97" fill="#f4f4f4"/>
        <path d="M272.287,74.971h-18.95l-10.46,3.8v60l10.46,3.82h18.93l10.5-3.82v-59.99l-10.48-3.81ZM266.617,129.871h-9.26v-42.58h9.26v42.58Z" fill="#f4f4f4"/>
        <path d="M86.127,74.971h-18.96l-10.46,3.8v60l10.47,3.82h18.93l10.49-3.82v-59.99l-10.47-3.81ZM80.447,129.871h-9.25v-42.58h9.25v42.58Z" fill="#f4f4f4"/>
      </g>
    </g>
  </g>
</svg>