<?xml version="1.0" encoding="UTF-8"?>
<svg id="Layer_2" data-name="Layer 2" xmlns="http://www.w3.org/2000/svg" viewBox="0 0 694.03 67.626">
  <g id="Layer_1-2" data-name="Layer 1">
    <g>
      <g>
        <polygon points="53.898 1.832 53.898 65.781 55.748 66.449 56.711 66.801 56.711 67.624 41.217 67.624 41.217 34.981 33.916 67.624 22.979 67.624 15.678 34.981 15.678 67.624 0 67.624 0 .003 19.237 .003 28.331 35.529 37.503 .003 56.711 .003 56.711 .812 55.748 1.164 53.898 1.832" fill="#f4f4f4"/>
        <polygon points="136.437 .003 136.437 67.624 121.856 67.624 111.995 36.444 111.995 67.624 96.599 67.624 96.599 66.794 97.562 66.442 99.412 65.774 99.412 1.832 97.562 1.164 96.599 .812 96.599 .003 111.341 .003 121.167 31.077 121.167 .003 136.437 .003" fill="#f4f4f4"/>
        <path d="M86.147.001h-18.98l-10.46,3.81v60l10.48,3.81h18.92l10.49-3.82V3.811L86.147.001ZM86.707,29.651h-6.67v-5.52h-6.76v6.05l13.43,4.66v6.36c0,4.21-2.26,6.69-7.43,7.26v2.99h-5.26v-2.99c-5.15-.59-7.41-3.07-7.41-7.26v-3.23h6.67v5.46h6.76v-6l-13.43-4.67v-6.38c0-4.19,2.26-6.67,7.41-7.26v-2.96h5.26v2.96c5.17.59,7.43,3.07,7.43,7.26v3.27Z" fill="#f4f4f4"/>
        <polygon points="213.421 0 213.421 42.082 201.323 46.485 201.323 67.62 185.92 67.62 185.92 46.485 173.632 42.011 173.632 0 188.951 0 188.951 33.81 198.017 33.81 198.017 0 213.421 0" fill="#f4f4f4"/>
        <polygon points="154.655 12.33 154.655 27.044 168.454 27.044 168.454 39.381 154.655 39.381 154.655 55.333 171.521 55.333 171.521 67.62 139.251 67.62 139.251 0 171.521 0 171.521 12.33 154.655 12.33" fill="#f4f4f4"/>
      </g>
      <g>
        <polygon points="651.076 .005 651.076 67.625 635.581 67.625 635.581 34.983 628.28 67.625 617.343 67.625 610.042 34.983 610.042 67.625 594.365 67.625 594.365 .005 613.601 .005 622.696 35.531 631.867 .005 651.076 .005" fill="#f4f4f4"/>
        <polygon points="591.204 .005 591.204 67.625 575.71 67.625 575.71 34.983 568.409 67.625 557.472 67.625 550.171 34.983 550.171 67.625 534.493 67.625 534.493 .005 553.73 .005 562.824 35.531 571.996 .005 591.204 .005" fill="#f4f4f4"/>
        <path d="M683.78.006h-18.95l-10.59,3.85v63.77h15.27v-21.5h9.25v21.5h15.27V3.736L683.78.006ZM678.76,33.846h-9.25V12.326h9.25v21.52Z" fill="#f4f4f4"/>
      </g>
      <g>
        <polygon points="287.065 1.837 287.065 65.779 288.915 66.454 289.878 66.806 289.878 67.621 274.384 67.621 274.384 34.979 267.083 67.621 256.146 67.621 248.845 34.979 248.845 67.621 233.167 67.621 233.167 .001 252.404 .001 261.498 35.527 270.67 .001 289.878 .001 289.878 .817 288.915 1.169 287.065 1.837" fill="#f4f4f4"/>
        <polygon points="345.035 .001 345.035 67.621 329.766 67.621 329.766 66.799 330.729 66.447 332.579 65.779 332.579 1.844 330.729 1.176 329.766 .824 329.766 .001 345.035 .001" fill="#f4f4f4"/>
        <polygon points="372.462 21.513 372.462 12.327 363.206 12.327 363.206 54.908 372.462 54.908 372.462 46.123 387.732 46.123 387.732 63.89 377.463 67.625 358.535 67.625 347.936 63.763 347.936 3.859 358.528 .004 377.484 .004 387.732 3.732 387.732 21.513 372.462 21.513" fill="#f4f4f4"/>
        <path d="M420.184.006h-18.96l-10.58,3.85v63.77h15.26v-21.51h9.26v21.51h15.27V3.726L420.184.006ZM415.164,33.836h-9.26V12.326h9.26v21.51Z" fill="#f4f4f4"/>
        <polygon points="473.135 .004 473.135 67.625 458.674 67.625 448.932 36.452 448.932 67.625 433.339 67.625 433.339 .004 447.757 .004 447.757 .011 457.499 31.184 457.499 .004 473.135 .004" fill="#f4f4f4"/>
        <path d="M505.454.006h-18.95l-10.46,3.8v60l10.46,3.82h18.93l10.5-3.82V3.816L505.454.006ZM499.784,54.906h-9.26V12.326h9.26v42.58Z" fill="#f4f4f4"/>
        <path d="M319.294.006h-18.96l-10.46,3.8v60l10.47,3.82h18.93l10.49-3.82V3.816L319.294.006ZM313.614,54.906h-9.25V12.326h9.25v42.58Z" fill="#f4f4f4"/>
      </g>
    </g>
  </g>
</svg>