<svg width="32" height="32" viewBox="0 0 32 32" fill="none" xmlns="http://www.w3.org/2000/svg">
<g clip-path="url(#clip0_15_365)">
<path d="M12.6667 12C12.932 12 13.1863 12.1054 13.3739 12.2929C13.5614 12.4804 13.6667 12.7348 13.6667 13C13.6667 13.2652 13.5614 13.5196 13.3739 13.7071C13.1863 13.8946 12.932 14 12.6667 14H9.00008C8.91168 14 8.82689 14.0351 8.76438 14.0976C8.70187 14.1601 8.66675 14.2449 8.66675 14.3333V15.3333C8.66675 17.2783 9.43936 19.1435 10.8146 20.5188C12.1899 21.894 14.0552 22.6667 16.0001 22.6667C17.945 22.6667 19.8103 21.894 21.1855 20.5188C22.5608 19.1435 23.3334 17.2783 23.3334 15.3333V14.3333C23.3334 14.2449 23.2983 14.1601 23.2358 14.0976C23.1733 14.0351 23.0885 14 23.0001 14H19.3334C19.0682 14 18.8138 13.8946 18.6263 13.7071C18.4388 13.5196 18.3334 13.2652 18.3334 13C18.3334 12.7348 18.4388 12.4804 18.6263 12.2929C18.8138 12.1054 19.0682 12 19.3334 12H23.0001C23.0885 12 23.1733 11.9649 23.2358 11.9024C23.2983 11.8399 23.3334 11.7551 23.3334 11.6667V10.3333C23.3334 10.2449 23.2983 10.1601 23.2358 10.0976C23.1733 10.0351 23.0885 10 23.0001 10H19.3334C19.0682 10 18.8138 9.89464 18.6263 9.70711C18.4388 9.51957 18.3334 9.26521 18.3334 9C18.3334 8.73478 18.4388 8.48043 18.6263 8.29289C18.8138 8.10536 19.0682 8 19.3334 8H23.0001C23.0885 8 23.1733 7.96488 23.2358 7.90237C23.2983 7.83986 23.3334 7.75507 23.3334 7.66667V7.33333C23.3287 6.01261 22.97 4.71729 22.2947 3.58229C21.6193 2.4473 20.652 1.51413 19.4934 0.879999C19.4427 0.850743 19.3853 0.835341 19.3267 0.835341C19.2682 0.835341 19.2108 0.850743 19.1601 0.879999C19.1127 0.910214 19.0734 0.951486 19.0455 1.00026C19.0177 1.04904 19.0021 1.10386 19.0001 1.16V4C19.0001 4.26522 18.8947 4.51957 18.7072 4.70711C18.5197 4.89464 18.2653 5 18.0001 5C17.7349 5 17.4805 4.89464 17.293 4.70711C17.1054 4.51957 17.0001 4.26522 17.0001 4V0.359999C17.0037 0.316197 16.9987 0.272107 16.9852 0.230265C16.9718 0.188424 16.9501 0.149658 16.9216 0.116199C16.8931 0.0827397 16.8583 0.0552477 16.8191 0.0353054C16.78 0.0153631 16.7372 0.00336421 16.6934 -6.51926e-07C16.2503 -0.0493162 15.8032 -0.0493162 15.3601 -6.55651e-07C15.2786 0.00648064 15.2024 0.0426537 15.1459 0.101647C15.0893 0.160641 15.0564 0.238345 15.0534 0.319999V4C15.0534 4.26522 14.9481 4.51957 14.7605 4.70711C14.573 4.89464 14.3186 5 14.0534 5C13.7882 5 13.5338 4.89464 13.3463 4.70711C13.1588 4.51957 13.0534 4.26522 13.0534 4V1.17333C13.0461 1.11187 13.0224 1.05348 12.9849 1.00424C12.9474 0.955002 12.8974 0.916707 12.8401 0.893333C12.7894 0.864077 12.7319 0.848674 12.6734 0.848674C12.6149 0.848674 12.5574 0.864077 12.5067 0.893333C11.3502 1.52637 10.3841 2.45744 9.70889 3.58989C9.03364 4.72233 8.67381 6.01487 8.66675 7.33333V7.66667C8.66675 7.75507 8.70187 7.83986 8.76438 7.90237C8.82689 7.96488 8.91168 8 9.00008 8H12.6667C12.932 8 13.1863 8.10536 13.3739 8.29289C13.5614 8.48043 13.6667 8.73478 13.6667 9C13.6667 9.26521 13.5614 9.51957 13.3739 9.70711C13.1863 9.89464 12.932 10 12.6667 10H9.00008C8.91168 10 8.82689 10.0351 8.76438 10.0976C8.70187 10.1601 8.66675 10.2449 8.66675 10.3333V11.6667C8.66675 11.7551 8.70187 11.8399 8.76438 11.9024C8.82689 11.9649 8.91168 12 9.00008 12H12.6667Z" fill="#E8181A"/>
<path d="M26.6667 11.3334C26.313 11.3334 25.9739 11.4739 25.7239 11.7239C25.4738 11.9739 25.3333 12.3131 25.3333 12.6667V15.3334C25.3333 17.8087 24.35 20.1827 22.5997 21.933C20.8493 23.6834 18.4754 24.6667 16 24.6667C13.5246 24.6667 11.1507 23.6834 9.40034 21.933C7.65 20.1827 6.66667 17.8087 6.66667 15.3334V12.6667C6.66667 12.3131 6.52619 11.9739 6.27614 11.7239C6.02609 11.4739 5.68696 11.3334 5.33333 11.3334C4.97971 11.3334 4.64057 11.4739 4.39052 11.7239C4.14048 11.9739 4 12.3131 4 12.6667V15.3334C3.99901 18.2349 5.04934 21.0385 6.95653 23.2252C8.86372 25.4118 11.4986 26.8334 14.3733 27.2267C14.4559 27.2335 14.5325 27.2721 14.5872 27.3342C14.6419 27.3964 14.6704 27.4773 14.6667 27.56V30.6667C14.6667 31.0203 14.8071 31.3595 15.0572 31.6095C15.3072 31.8596 15.6464 32 16 32C16.3536 32 16.6928 31.8596 16.9428 31.6095C17.1929 31.3595 17.3333 31.0203 17.3333 30.6667V27.56C17.3296 27.4773 17.3581 27.3964 17.4128 27.3342C17.4675 27.2721 17.5441 27.2335 17.6267 27.2267C20.5014 26.8334 23.1363 25.4118 25.0435 23.2252C26.9507 21.0385 28.001 18.2349 28 15.3334V12.6667C28 12.3131 27.8595 11.9739 27.6095 11.7239C27.3594 11.4739 27.0203 11.3334 26.6667 11.3334Z" fill="#E8181A"/>
</g>
<defs>
<clipPath id="clip0_15_365">
<rect width="32" height="32" fill="white"/>
</clipPath>
</defs>
</svg>
