<svg width="32" height="32" viewBox="0 0 32 32" fill="none" xmlns="http://www.w3.org/2000/svg">
<g clip-path="url(#clip0_15_359)">
<path fill-rule="evenodd" clip-rule="evenodd" d="M10.8969 0.562007C11.272 0.186787 11.7833 0 12.3347 0H19.6657C20.2171 0 20.7283 0.186787 21.1035 0.562007C21.4786 0.937205 21.6653 1.44857 21.6653 2V4.66667C21.6653 5.21809 21.4786 5.72947 21.1035 6.10467C20.7742 6.43401 20.3401 6.61819 19.8659 6.65829V8.69875C21.3563 8.87156 22.7679 9.14277 24.0639 9.49951V1.40003C24.0639 1.04397 24.2533 0.714765 24.561 0.535695C24.8687 0.356624 25.2485 0.354699 25.5581 0.530637L31.4227 3.86397C31.7354 4.04171 31.9286 4.37368 31.9286 4.73336C31.9286 5.09304 31.7354 5.42501 31.4227 5.60275L26.0639 8.64856V10.153C26.3557 10.2651 26.639 10.3822 26.9131 10.5041C28.3421 11.1394 29.581 11.9304 30.4807 12.8761C31.387 13.8288 32.0006 14.9993 32.0006 16.3333C32.0006 16.4068 31.9989 16.4796 31.9953 16.5519V24.3333C31.9953 26.8421 29.7901 28.7529 27.0153 29.9812C26.8142 30.0701 26.6082 30.1565 26.3973 30.2404V26.2C26.3973 25.4636 25.8003 24.8667 25.0639 24.8667C24.3275 24.8667 23.7306 25.4636 23.7306 26.2V31.0943C21.8038 31.5829 19.6342 31.8895 17.3335 31.9753V27.7229C17.3335 26.9865 16.7366 26.3896 16.0002 26.3896C15.2638 26.3896 14.6669 26.9865 14.6669 27.7229V31.9753C12.4191 31.8915 10.2965 31.5969 8.40313 31.1276V26.2C8.40313 25.4636 7.80617 24.8667 7.06979 24.8667C6.33341 24.8667 5.73646 25.4636 5.73646 26.2V30.2927C5.4789 30.1927 5.22831 30.0888 4.9851 29.9812C2.21031 28.7529 0.00511824 26.8421 0.00511824 24.3333V16.5585C0.00155642 16.484 -0.000244141 16.4089 -0.000244141 16.3333C-0.000244141 14.9993 0.613427 13.8288 1.51969 12.8761C2.41941 11.9304 3.65834 11.1394 5.08731 10.5041C5.36142 10.3822 5.64467 10.2651 5.9365 10.153V8.64856L0.577629 5.60275C0.264927 5.42501 0.0717614 5.09304 0.0717614 4.73336C0.0717614 4.37368 0.264927 4.04171 0.577629 3.86397L6.44237 0.530637C6.75193 0.354697 7.13167 0.356624 7.43943 0.535695C7.74718 0.714765 7.9365 1.04397 7.9365 1.40003V9.49951C9.19382 9.15343 10.5599 8.88783 12.0012 8.71449V6.64305C11.5792 6.58208 11.195 6.40289 10.8969 6.10467C10.5218 5.72947 10.3352 5.21809 10.3352 4.66667V2C10.3352 1.44857 10.5218 0.937205 10.8969 0.562007ZM14.0011 8.53692C14.657 8.49876 15.3243 8.47919 16.0002 8.47919C16.6303 8.47919 17.253 8.4962 17.8659 8.52943V6.66667H14.0011V8.53692ZM22.0655 20.9113C21.9649 20.9325 21.8633 20.9533 21.761 20.9735L21.7575 20.9743C20.0118 21.3239 18.0622 21.5209 16.0002 21.5209C13.8841 21.5209 11.8946 21.3151 10.115 20.9483C9.97787 20.92 9.84257 20.8911 9.70913 20.8615C9.3851 20.6591 9.10983 20.4467 8.90231 20.2375C8.56142 19.8939 8.53642 19.6999 8.53642 19.6667C8.53642 19.4361 8.73411 18.9548 9.59981 18.4232C9.61707 18.4132 9.63418 18.4029 9.65111 18.3921C9.84839 18.2741 10.0788 18.1539 10.3474 18.0335C11.7375 17.4107 13.7423 17 16.0002 17C18.2581 17 20.263 17.4107 21.653 18.0335C21.9219 18.154 22.1526 18.2744 22.3501 18.3925C22.3666 18.4031 22.3831 18.4132 22.3999 18.4228C23.219 18.9256 23.4405 19.3835 23.4622 19.6268C23.455 19.6439 23.4414 19.6723 23.4173 19.7125C23.3455 19.8321 23.2169 19.9943 23.0178 20.1851C22.7561 20.436 22.4237 20.6876 22.0655 20.9113ZM26.1301 19.6016C26.1107 18.5788 25.6378 17.7324 24.9503 17.0505L27.5185 13.8607C27.9319 14.1404 28.2757 14.4272 28.5487 14.7141C29.1269 15.3219 29.3339 15.8667 29.3339 16.3333C29.3339 17.0248 28.8745 17.9055 27.5223 18.8197C27.1173 19.0936 26.6515 19.3557 26.1301 19.6016ZM17.3335 11.1735C20.3243 11.2984 23.0039 11.8378 25.0833 12.633L22.7075 15.584C21.2246 14.9261 19.3538 14.5049 17.3335 14.3757V11.1735ZM9.27921 15.59C10.7643 14.9287 12.6404 14.5053 14.6669 14.3757V11.1735C11.6453 11.2997 8.94145 11.849 6.85315 12.6576L9.27921 15.59ZM4.42161 13.9019C4.03485 14.1685 3.71131 14.4413 3.45171 14.7141C2.87359 15.3219 2.66642 15.8667 2.66642 16.3333C2.66642 17.0517 3.07903 17.8967 4.32719 18.7667C4.75974 19.0683 5.27425 19.358 5.86994 19.6303C5.88078 18.6011 6.35026 17.7493 7.03718 17.0635L4.42161 13.9019Z" fill="#E8181A"/>
</g>
<defs>
<clipPath id="clip0_15_359">
<rect width="32" height="32" fill="white"/>
</clipPath>
</defs>
</svg>
