<svg width="32" height="32" viewBox="0 0 32 32" fill="none" xmlns="http://www.w3.org/2000/svg">
<path d="M15.9999 9.33337C14.6814 9.33337 13.3924 9.72437 12.2961 10.4569C11.1998 11.1895 10.3453 12.2306 9.84072 13.4488C9.33614 14.667 9.20412 16.0074 9.46135 17.3006C9.71859 18.5938 10.3535 19.7817 11.2859 20.7141C12.2182 21.6464 13.4061 22.2814 14.6993 22.5386C15.9925 22.7958 17.333 22.6638 18.5511 22.1592C19.7693 21.6547 20.8105 20.8002 21.5431 19.7038C22.2756 18.6075 22.6666 17.3186 22.6666 16C22.6666 14.2319 21.9642 12.5362 20.714 11.286C19.4637 10.0358 17.768 9.33337 15.9999 9.33337ZM18.8933 16.7067L15.1466 18.5867C15.0282 18.6521 14.8952 18.6864 14.7599 18.6864C14.6247 18.6864 14.4916 18.6521 14.3733 18.5867C14.2612 18.5147 14.1685 18.4162 14.1034 18.2999C14.0383 18.1837 14.0028 18.0532 13.9999 17.92V14.12C14.0028 13.9868 14.0383 13.8564 14.1034 13.7401C14.1685 13.6239 14.2612 13.5254 14.3733 13.4534C14.4916 13.388 14.6247 13.3537 14.7599 13.3537C14.8952 13.3537 15.0282 13.388 15.1466 13.4534L18.8933 15.3334C19.0255 15.3981 19.137 15.4986 19.215 15.6235C19.2929 15.7485 19.3343 15.8928 19.3343 16.04C19.3343 16.1873 19.2929 16.3316 19.215 16.4565C19.137 16.5815 19.0255 16.682 18.8933 16.7467V16.7067Z" fill="#E8181A"/>
<path d="M9.86666 9.86667C10.0592 9.60991 10.1527 9.2923 10.13 8.97215C10.1072 8.65201 9.96975 8.35081 9.7428 8.12386C9.51585 7.89691 9.21465 7.75945 8.89451 7.73669C8.57436 7.71394 8.25675 7.80743 7.99999 8.00001C5.88953 10.1277 4.70532 13.0032 4.70532 16C4.70532 18.9969 5.88953 21.8723 7.99999 24C8.12458 24.1236 8.27233 24.2213 8.43478 24.2877C8.59723 24.3541 8.77118 24.3877 8.94666 24.3867C9.29181 24.3817 9.6216 24.2431 9.86666 24C10.115 23.7502 10.2544 23.4123 10.2544 23.06C10.2544 22.7078 10.115 22.3698 9.86666 22.12C8.24881 20.4914 7.34082 18.289 7.34082 15.9933C7.34082 13.6977 8.24881 11.4953 9.86666 9.86667Z" fill="#E8181A"/>
<path d="M23.9999 8.00001C23.8852 7.84718 23.7391 7.72077 23.5714 7.62934C23.4037 7.5379 23.2183 7.48357 23.0277 7.47003C22.8372 7.45649 22.6459 7.48405 22.467 7.55085C22.288 7.61765 22.1255 7.72212 21.9904 7.8572C21.8553 7.99228 21.7508 8.1548 21.684 8.33377C21.6172 8.51274 21.5897 8.70398 21.6032 8.89453C21.6168 9.08508 21.6711 9.27049 21.7625 9.43821C21.854 9.60594 21.9804 9.75206 22.1332 9.86668C23.7551 11.4959 24.6657 13.7011 24.6657 16C24.6657 18.2989 23.7551 20.5042 22.1332 22.1333C21.8849 22.3832 21.7455 22.7211 21.7455 23.0733C21.7455 23.4256 21.8849 23.7635 22.1332 24.0133C22.3815 24.2597 22.7167 24.3985 23.0665 24.4C23.4182 24.395 23.7537 24.2512 23.9999 24C26.1103 21.8723 27.2945 18.9969 27.2945 16C27.2945 13.0032 26.1103 10.1277 23.9999 8.00001Z" fill="#E8181A"/>
<path d="M6.37325 7.04002C6.62159 6.79021 6.76097 6.45227 6.76097 6.10002C6.76097 5.74778 6.62159 5.40984 6.37325 5.16002C6.2493 5.03505 6.10183 4.93586 5.93935 4.86817C5.77687 4.80048 5.6026 4.76562 5.42659 4.76562C5.25057 4.76562 5.07629 4.80048 4.91382 4.86817C4.75134 4.93586 4.60387 5.03505 4.47992 5.16002C1.61228 8.03884 0.00219727 11.9367 0.00219727 16C0.00219727 20.0634 1.61228 23.9612 4.47992 26.84C4.60387 26.965 4.75134 27.0642 4.91382 27.1319C5.07629 27.1996 5.25057 27.2344 5.42659 27.2344C5.6026 27.2344 5.77687 27.1996 5.93935 27.1319C6.10183 27.0642 6.2493 26.965 6.37325 26.84C6.62159 26.5902 6.76097 26.2523 6.76097 25.9C6.76097 25.5478 6.62159 25.2098 6.37325 24.96C3.99903 22.5826 2.66548 19.36 2.66548 16C2.66548 12.6401 3.99903 9.41749 6.37325 7.04002Z" fill="#E8181A"/>
<path d="M27.5198 5.16002C27.3959 5.03505 27.2484 4.93586 27.0859 4.86817C26.9235 4.80048 26.7492 4.76562 26.5732 4.76562C26.3971 4.76562 26.2229 4.80048 26.0604 4.86817C25.8979 4.93586 25.7504 5.03505 25.6265 5.16002C25.3782 5.40984 25.2388 5.74778 25.2388 6.10002C25.2388 6.45227 25.3782 6.79021 25.6265 7.04002C28.0007 9.41749 29.3343 12.6401 29.3343 16C29.3343 19.36 28.0007 22.5826 25.6265 24.96C25.3782 25.2098 25.2388 25.5478 25.2388 25.9C25.2388 26.2523 25.3782 26.5902 25.6265 26.84C25.7504 26.965 25.8979 27.0642 26.0604 27.1319C26.2229 27.1996 26.3971 27.2344 26.5732 27.2344C26.7492 27.2344 26.9235 27.1996 27.0859 27.1319C27.2484 27.0642 27.3959 26.965 27.5198 26.84C30.3875 23.9612 31.9975 20.0634 31.9975 16C31.9975 11.9367 30.3875 8.03884 27.5198 5.16002Z" fill="#E8181A"/>
</svg>
