<svg width="30" height="21" viewBox="0 0 30 21" fill="none" xmlns="http://www.w3.org/2000/svg">
<g clip-path="url(#clip0_32_1736)">
<path d="M11.5355 14.4891V5.88822L19.116 10.1889L11.5355 14.4891ZM28.3975 3.18192C28.064 1.92936 27.0811 0.94302 25.8333 0.608271C23.5715 -9.72748e-05 14.5018 -9.91821e-05 14.5018 -9.91821e-05C14.5018 -9.91821e-05 5.43213 -9.72748e-05 3.17028 0.608271C1.92241 0.94302 0.939579 1.92936 0.606065 3.18192C0 5.45209 0 10.1887 0 10.1887C0 10.1887 0 14.9252 0.606065 17.1954C0.939579 18.448 1.92241 19.4343 3.17028 19.7692C5.43213 20.3774 14.5018 20.3774 14.5018 20.3774C14.5018 20.3774 23.5715 20.3774 25.8333 19.7692C27.0811 19.4343 28.064 18.448 28.3975 17.1954C29.0036 14.9252 29.0036 10.1887 29.0036 10.1887C29.0036 10.1887 29.0036 5.45209 28.3975 3.18192Z" fill="#8A8A89"/>
</g>
<defs>
<clipPath id="clip0_32_1736">
<rect width="29.0131" height="20.3709" fill="white"/>
</clipPath>
</defs>
</svg>
