<?xml version="1.0" encoding="UTF-8"?>
<svg id="Layer_2" data-name="Layer 2" xmlns="http://www.w3.org/2000/svg" viewBox="0 0 460.863 146.027">
  <g id="Layer_1" data-name="Layer 1">
    <g>
      <polygon points="116.388 3.956 116.388 142.048 120.382 143.49 122.463 144.25 122.463 146.027 89.003 146.027 89.003 75.538 73.238 146.027 49.62 146.027 33.855 75.538 33.855 146.027 0 146.027 0 .007 41.54 .007 61.178 76.723 80.984 .007 122.463 .007 122.463 1.753 120.382 2.513 116.388 3.956" fill="#f4f4f4"/>
      <polygon points="294.622 .007 294.622 146.027 263.137 146.027 241.843 78.697 241.843 146.027 208.596 146.027 208.596 144.235 210.677 143.475 214.671 142.032 214.671 3.956 210.677 2.513 208.596 1.753 208.596 .007 240.431 .007 261.649 67.109 261.649 .007 294.622 .007" fill="#f4f4f4"/>
      <path d="M186.027.003h-40.986l-22.587,8.227v129.565l22.631,8.227h40.856l22.652-8.249V8.23L186.027.003ZM187.236,64.029h-14.404v-11.92h-14.598v13.064l29.001,10.063v13.734c0,9.091-4.881,14.446-16.045,15.677v6.457h-11.359v-6.457c-11.121-1.274-16.001-6.629-16.001-15.677v-6.975h14.403v11.79h14.598v-12.956l-29.001-10.084v-13.777c0-9.048,4.88-14.403,16.001-15.677v-6.392h11.359v6.392c11.164,1.274,16.045,6.629,16.045,15.677v7.061Z" fill="#f4f4f4"/>
      <polygon points="460.863 0 460.863 90.872 434.739 100.379 434.739 146.02 401.477 146.02 401.477 100.379 374.943 90.72 374.943 0 408.023 0 408.023 73.01 427.601 73.01 427.601 0 460.863 0" fill="#f4f4f4"/>
      <polygon points="333.962 26.625 333.962 58.399 363.762 58.399 363.762 85.039 333.962 85.039 333.962 119.486 370.384 119.486 370.384 146.02 300.7 146.02 300.7 0 370.384 0 370.384 26.625 333.962 26.625" fill="#f4f4f4"/>
    </g>
  </g>
</svg>